<?xml version="1.0" encoding="UTF-8"?>
<svg width="42px" height="30px" viewBox="0 0 42 30" version="1.1" xmlns="http://www.w3.org/2000/svg" xmlns:xlink="http://www.w3.org/1999/xlink">
    <!-- Generator: Sketch 50.2 (55047) - http://www.bohemiancoding.com/sketch -->
    <title>Ico</title>
    <desc>Created with Sketch.</desc>
    <defs></defs>
    <g id="Design" stroke="none" stroke-width="1" fill="none" fill-rule="evenodd">
        <g id="Startpage" transform="translate(-40.000000, -1186.000000)">
            <g id="Press-Release" transform="translate(39.000000, 1104.000000)">
                <g id="Press" transform="translate(1.000000, 77.000000)">
                    <g id="Ico" transform="translate(0.000000, 5.000000)">
                        <path d="M40.97953,23.9550134 L40.9984188,12 L30,12 L30,28.9799116 L35.92101,28.9825848 C38.5935859,28.7708164 40.7312936,26.6451912 40.97953,23.9550134 Z" id="Combined-Shape" stroke="#C3C9D8" stroke-width="2"></path>
                        <path d="M32.3915853,28.9825018 C31.0543112,27.7292571 30.1668631,25.9818545 30,24 L30,1 L1.00072765,1 L1.01741523,23.9415498 C1.23022853,26.6273127 3.37583189,28.7729161 5.99933699,29.0000002 L32.3915853,28.9825018 Z" id="Path" stroke="#C3C9D8" stroke-width="2" fill="#FFFFFF"></path>
                        <rect id="Rectangle-10" fill="#245DFF" x="17" y="5" width="9" height="2"></rect>
                        <rect id="Rectangle-10" fill="#245DFF" x="17" y="11" width="9" height="2"></rect>
                        <rect id="Rectangle-10-Copy" fill="#245DFF" x="5" y="17" width="9" height="2"></rect>
                        <rect id="Rectangle-10-Copy" fill="#245DFF" x="5" y="23" width="9" height="2"></rect>
                        <rect id="Rectangle-10" fill="#245DFF" x="17" y="17" width="9" height="2"></rect>
                        <rect id="Rectangle-10" fill="#245DFF" x="17" y="23" width="9" height="2"></rect>
                        <rect id="Rectangle-7" stroke="#245DFF" stroke-width="2" x="6" y="6" width="7" height="6"></rect>
                    </g>
                </g>
            </g>
        </g>
    </g>
</svg>