<?xml version="1.0" encoding="UTF-8"?>
<svg width="133px" height="18px" viewBox="0 0 133 18" version="1.1" xmlns="http://www.w3.org/2000/svg" xmlns:xlink="http://www.w3.org/1999/xlink">
    <!-- Generator: Sketch 52.5 (67469) - http://www.bohemiancoding.com/sketch -->
    <title>Logo</title>
    <desc>Created with Sketch.</desc>
    <g id="Design" stroke="none" stroke-width="1" fill="none" fill-rule="evenodd">
        <g id="Illustration-Test-Copy" transform="translate(-30.000000, -26.000000)">
            <g id="Header">
                <g id="Logo" transform="translate(30.000000, 26.000000)">
                    <path d="M0.216,16.164 L0.216,2.436 C0.216,1.886 0.502,1.6 1.052,1.6 L4.814,1.6 C7.542,1.6 9.588,2.964 9.588,6.176 L9.588,12.424 C9.588,15.636 7.542,17 4.814,17 L1.052,17 C0.502,17 0.216,16.714 0.216,16.164 Z M7.058,6.44 C7.058,4.394 5.98,3.998 4.748,3.998 L2.746,3.998 L2.746,14.602 L4.748,14.602 C5.98,14.602 7.058,14.206 7.058,12.16 L7.058,6.44 Z" id="Combined-Shape" fill="#FFFFFF"></path>
                    <path d="M13.614,2.436 C13.614,1.886 13.9,1.6 14.45,1.6 L15.308,1.6 C15.858,1.6 16.144,1.886 16.144,2.436 L16.144,16.164 C16.144,16.714 15.858,17 15.308,17 L14.45,17 C13.9,17 13.614,16.714 13.614,16.164 L13.614,2.436 Z" id="Path" fill="#FFFFFF"></path>
                    <path d="M28.772,6.748 L27.826,6.748 C27.32,6.748 27.078,6.484 27.078,6 C27.078,4.702 26.286,3.756 24.988,3.756 C23.756,3.756 22.722,4.394 22.722,6.44 L22.722,12.16 C22.722,14.206 23.734,14.844 24.966,14.844 C26.198,14.844 27.21,14.206 27.21,12.16 L27.21,11.478 L26.022,11.478 C25.472,11.478 25.186,11.192 25.186,10.642 L25.186,9.916 C25.186,9.366 25.472,9.08 26.022,9.08 L28.904,9.08 C29.454,9.08 29.74,9.366 29.74,9.916 L29.74,12.424 C29.74,15.636 27.694,17.242 24.966,17.242 C22.238,17.242 20.192,15.636 20.192,12.424 L20.192,6.176 C20.192,2.964 22.238,1.358 24.966,1.358 C27.694,1.358 29.608,3.228 29.608,5.846 L29.608,5.912 C29.608,6.462 29.322,6.748 28.772,6.748 Z" id="Path" fill="#FFFFFF"></path>
                    <path d="M33.568,2.436 C33.568,1.886 33.854,1.6 34.404,1.6 L35.262,1.6 C35.812,1.6 36.098,1.886 36.098,2.436 L36.098,16.164 C36.098,16.714 35.812,17 35.262,17 L34.404,17 C33.854,17 33.568,16.714 33.568,16.164 L33.568,2.436 Z" id="Path" fill="#FFFFFF"></path>
                    <path d="M42.654,16.164 L42.654,3.998 L40.08,3.998 C39.53,3.998 39.244,3.712 39.244,3.162 L39.244,2.436 C39.244,1.886 39.53,1.6 40.08,1.6 L47.758,1.6 C48.308,1.6 48.594,1.886 48.594,2.436 L48.594,3.162 C48.594,3.712 48.308,3.998 47.758,3.998 L45.184,3.998 L45.184,16.164 C45.184,16.714 44.898,17 44.348,17 L43.49,17 C42.94,17 42.654,16.714 42.654,16.164 Z" id="Path" fill="#FFFFFF"></path>
                    <path d="M51.366,16.164 L51.366,6.176 C51.366,2.964 53.412,1.358 56.14,1.358 C58.868,1.358 60.914,2.964 60.914,6.176 L60.914,16.164 C60.914,16.714 60.628,17 60.078,17 L59.22,17 C58.67,17 58.384,16.714 58.384,16.164 L58.384,12.028 L53.896,12.028 L53.896,16.164 C53.896,16.714 53.61,17 53.06,17 L52.202,17 C51.652,17 51.366,16.714 51.366,16.164 Z M53.896,6.44 L53.896,9.63 L58.384,9.63 L58.384,6.44 C58.384,4.394 57.372,3.756 56.14,3.756 C54.908,3.756 53.896,4.394 53.896,6.44 Z" id="Combined-Shape" fill="#FFFFFF"></path>
                    <path d="M65.182,16.164 L65.182,2.436 C65.182,1.886 65.468,1.6 66.018,1.6 L66.876,1.6 C67.426,1.6 67.712,1.886 67.712,2.436 L67.712,14.602 L72.442,14.602 C72.992,14.602 73.278,14.888 73.278,15.438 L73.278,16.164 C73.278,16.714 72.992,17 72.442,17 L66.018,17 C65.468,17 65.182,16.714 65.182,16.164 Z" id="Path" fill="#FFFFFF"></path>
                    <path d="M78.338,12.842 L78.338,12.908 C78.338,14.272 79.284,14.844 80.45,14.844 C81.616,14.844 82.562,14.294 82.562,12.93 L82.562,12.908 C82.562,9.564 75.94,11.236 75.94,5.582 L75.94,5.56 C75.94,2.92 77.788,1.358 80.428,1.358 C83.068,1.358 84.916,2.942 84.916,5.582 L84.916,5.626 C84.916,6.176 84.63,6.462 84.08,6.462 L83.134,6.462 C82.628,6.462 82.386,6.198 82.386,5.714 L82.386,5.648 C82.386,4.416 81.572,3.756 80.428,3.756 C79.284,3.756 78.47,4.416 78.47,5.648 L78.47,5.67 C78.47,9.014 85.092,7.364 85.092,13.018 L85.092,13.04 C85.092,15.724 83.156,17.242 80.384,17.242 C77.744,17.242 75.808,15.658 75.808,13.018 L75.808,12.93 C75.808,12.38 76.094,12.094 76.644,12.094 L77.59,12.094 C78.096,12.094 78.338,12.358 78.338,12.842 Z M88.876,2.436 C88.876,1.886 89.162,1.6 89.712,1.6 L90.57,1.6 C91.12,1.6 91.406,1.886 91.406,2.436 L91.406,8.398 L95.696,2.194 C95.96,1.82 96.224,1.6 96.796,1.6 L98.006,1.6 C98.556,1.6 98.71,2.238 98.424,2.612 L94.288,8.134 L98.512,16.032 C98.732,16.45 98.556,17 97.984,17 L96.884,17 C96.312,17 96.026,16.824 95.784,16.318 L92.704,10.246 L91.406,11.984 L91.406,16.164 C91.406,16.714 91.12,17 90.57,17 L89.712,17 C89.162,17 88.876,16.714 88.876,16.164 L88.876,2.436 Z M104.892,16.164 L104.892,12.248 C102.758,11.808 101.284,10.224 101.284,7.452 L101.284,2.436 C101.284,1.886 101.57,1.6 102.12,1.6 L102.978,1.6 C103.528,1.6 103.814,1.886 103.814,2.436 L103.814,7.188 C103.814,9.322 104.87,9.96 106.146,9.96 C107.422,9.96 108.478,9.322 108.478,7.188 L108.478,2.436 C108.478,1.886 108.764,1.6 109.314,1.6 L110.172,1.6 C110.722,1.6 111.008,1.886 111.008,2.436 L111.008,7.452 C111.008,10.202 109.534,11.786 107.422,12.226 L107.422,16.164 C107.422,16.714 107.136,17 106.586,17 L105.728,17 C105.178,17 104.892,16.714 104.892,16.164 Z" id="DigitalSky" fill="#C6CFFF"></path>
                    <path d="M116.419922,3.1015625 C116.707033,3.1015625 116.930338,3.0616866 117.089844,2.98193359 C117.340496,2.85660745 117.46582,2.63102376 117.46582,2.30517578 C117.46582,1.97704914 117.332521,1.75602271 117.065918,1.64208984 C116.915527,1.57828744 116.692222,1.54638672 116.395996,1.54638672 L115.182617,1.54638672 L115.182617,3.1015625 L116.419922,3.1015625 Z M116.648926,5.41894531 C117.06592,5.41894531 117.36328,5.29817829 117.541016,5.05664062 C117.65267,4.90397059 117.708496,4.71940212 117.708496,4.50292969 C117.708496,4.13834453 117.545575,3.88997462 117.219727,3.7578125 C117.046549,3.68717413 116.817547,3.65185547 116.532715,3.65185547 L115.182617,3.65185547 L115.182617,5.41894531 L116.648926,5.41894531 Z M114.516113,0.979003906 L116.672852,0.979003906 C117.260745,0.979003906 117.678872,1.15445788 117.927246,1.50537109 C118.07308,1.7127289 118.145996,1.95198432 118.145996,2.22314453 C118.145996,2.53987789 118.05599,2.79964091 117.875977,3.00244141 C117.782552,3.1095383 117.648113,3.20751909 117.472656,3.29638672 C117.730145,3.39436898 117.922688,3.5048822 118.050293,3.62792969 C118.27588,3.84668078 118.388672,4.14859833 118.388672,4.53369141 C118.388672,4.85726073 118.287273,5.15006379 118.084473,5.41210938 C117.781411,5.80403842 117.299482,6 116.638672,6 L114.516113,6 L114.516113,0.979003906 Z M119.58209,0.979003906 L123.242734,0.979003906 L123.242734,1.59423828 L120.245176,1.59423828 L120.245176,3.11865234 L123.017148,3.11865234 L123.017148,3.69970703 L120.245176,3.69970703 L120.245176,5.40185547 L123.294004,5.40185547 L123.294004,6 L119.58209,6 L119.58209,0.979003906 Z M128.154902,0.979003906 L128.154902,1.57714844 L126.463008,1.57714844 L126.463008,6 L125.772578,6 L125.772578,1.57714844 L124.080684,1.57714844 L124.080684,0.979003906 L128.154902,0.979003906 Z M131.153008,3.94238281 L130.390801,1.72412109 L129.580742,3.94238281 L131.153008,3.94238281 Z M130.035332,0.979003906 L130.804375,0.979003906 L132.626152,6 L131.881035,6 L131.371758,4.49609375 L129.385918,4.49609375 L128.842461,6 L128.145195,6 L130.035332,0.979003906 Z" id="BETA" fill="#FFFFFF"></path>
                </g>
            </g>
        </g>
    </g>
</svg>