<?xml version="1.0" encoding="UTF-8"?>
<svg width="12px" height="24px" viewBox="0 0 12 24" version="1.1" xmlns="http://www.w3.org/2000/svg" xmlns:xlink="http://www.w3.org/1999/xlink">
    <!-- Generator: Sketch 51.1 (57501) - http://www.bohemiancoding.com/sketch -->
    <title>Fill 6</title>
    <desc>Created with Sketch.</desc>
    <defs></defs>
    <g id="Design" stroke="none" stroke-width="1" fill="none" fill-rule="evenodd">
        <g id="Press-Release" transform="translate(-138.000000, -333.000000)" fill="#245DFF">
            <path d="M138,340.936986 L140.570489,340.936986 L140.570489,338.525982 C140.570489,337.462262 140.59827,335.822949 141.399537,334.807195 C142.241745,333.732189 143.399781,333 145.389789,333 C148.632874,333 150,333.445803 150,333.445803 L149.356647,337.122267 C149.356647,337.122267 148.284879,336.823184 147.286219,336.823184 C146.286097,336.823184 145.389789,337.168822 145.389789,338.133788 L145.389789,340.936986 L149.489704,340.936986 L149.204581,344.527392 L145.389789,344.527392 L145.389789,357 L140.570489,357 L140.570489,344.527392 L138,344.527392 L138,340.936986 Z" id="Fill-6"></path>
        </g>
    </g>
</svg>