<?xml version="1.0" encoding="UTF-8"?>
<svg width="51px" height="50px" viewBox="0 0 51 50" version="1.1" xmlns="http://www.w3.org/2000/svg" xmlns:xlink="http://www.w3.org/1999/xlink">
    <!-- Generator: Sketch 50.2 (55047) - http://www.bohemiancoding.com/sketch -->
    <title>Group</title>
    <desc>Created with Sketch.</desc>
    <defs></defs>
    <g id="Design" stroke="none" stroke-width="1" fill="none" fill-rule="evenodd">
        <g id="Apply-for-Pilot---Step-2" transform="translate(-41.000000, -391.000000)">
            <g id="Upload-Certificate" transform="translate(40.000000, 311.000000)">
                <g id="CTA" transform="translate(0.000000, 79.000000)">
                    <g id="Group" transform="translate(1.000000, 1.000000)">
                        <rect id="Rectangle-7" fill="#003BE2" x="0" y="0" width="51" height="50"></rect>
                        <g id="Upload-icon" transform="translate(15.000000, 13.000000)">
                            <g>
                                <rect id="Rectangle-7" fill="#FFFFFF" x="0" y="6" width="2" height="16"></rect>
                                <rect id="Rectangle-9" fill="#FFFFFF" x="0" y="6" width="7" height="2"></rect>
                                <rect id="Rectangle-9-Copy" fill="#FFFFFF" x="15" y="6" width="7" height="2"></rect>
                                <rect id="Rectangle-8" fill="#FFFFFF" x="0" y="20" width="22" height="2"></rect>
                                <rect id="Rectangle-7-Copy-2" fill="#C6CFFF" x="10" y="2" width="2" height="15"></rect>
                                <path d="M11.0229939,0.00167198154 L11.0246658,2.97539771e-13 L14.6459862,3.62132034 L13.4388794,4.82842712 L11.0229939,2.41254158 L8.60710831,4.82842712 L7.40000153,3.62132034 L11.0213219,6.26165786e-14 L11.0229939,0.00167198154 Z" id="Combined-Shape" fill="#C6CFFF"></path>
                                <rect id="Rectangle-7-Copy" fill="#FFFFFF" x="20" y="6" width="2" height="16"></rect>
                            </g>
                        </g>
                    </g>
                </g>
            </g>
        </g>
    </g>
</svg>