<?xml version="1.0" encoding="UTF-8"?>
<svg width="9px" height="13px" viewBox="0 0 9 13" version="1.1" xmlns="http://www.w3.org/2000/svg" xmlns:xlink="http://www.w3.org/1999/xlink">
    <!-- Generator: Sketch 50.2 (55047) - http://www.bohemiancoding.com/sketch -->
    <title>?</title>
    <desc>Created with Sketch.</desc>
    <defs></defs>
    <g id="Design" stroke="none" stroke-width="1" fill="none" fill-rule="evenodd">
        <g id="Apply-for-Pilot---Step-2" transform="translate(-311.000000, -334.000000)" fill="#245DFF">
            <g id="Upload-Certificate" transform="translate(40.000000, 311.000000)">
                <g id="?" transform="translate(255.000000, 9.000000)">
                    <path d="M19.5575,27 C19.1154978,27 18.7415015,26.8470015 18.4355,26.541 C18.1294985,26.2349985 17.9765,25.8581689 17.9765,25.4105 C17.9765,24.9628311 18.1294985,24.5860015 18.4355,24.28 C18.7415015,23.9739985 19.1183311,23.821 19.566,23.821 C20.0136689,23.821 20.3904985,23.9739985 20.6965,24.28 C21.0025015,24.5860015 21.1555,24.9628311 21.1555,25.4105 C21.1555,25.8581689 21.0025015,26.2349985 20.6965,26.541 C20.3904985,26.8470015 20.0108356,27 19.5575,27 Z M16.6165,17.735 C16.5938332,16.6809947 16.9338298,15.8055035 17.6365,15.1085 C18.3391702,14.4114965 19.3081605,14.063 20.5435,14.063 C21.7788395,14.063 22.7761629,14.3916634 23.5355,15.049 C24.2948371,15.7063366 24.6745,16.6158275 24.6745,17.7775 C24.6745,18.9391725 24.3486699,19.7778308 23.697,20.2935 C23.0453301,20.8091692 22.1018395,21.0783332 20.8665,21.101 L20.8665,22.716 L18.1295,22.716 L18.1295,19.214 L19.2685,19.214 C20.1525044,19.214 20.8041646,19.112001 21.2235,18.908 C21.6428354,18.703999 21.8525,18.3130029 21.8525,17.735 C21.8525,17.3496647 21.7420011,17.0380012 21.521,16.8 C21.2999989,16.5619988 20.994002,16.443 20.603,16.443 C20.211998,16.443 19.9060011,16.5591655 19.685,16.7915 C19.4639989,17.0238345 19.3535,17.3383314 19.3535,17.735 L16.6165,17.735 Z"></path>
                </g>
            </g>
        </g>
    </g>
</svg>