<svg xmlns="http://www.w3.org/2000/svg" viewBox="0 0 3942.83 264.08"><defs><style>.a{fill:#fff;}</style></defs><title>landscape</title><path class="a" d="M3942.31,260h-28.65a98.92,98.92,0,0,1-70.24-29l-36.69-46.66a2.8,2.8,0,0,0-.28-.31,39.09,39.09,0,0,0-55.28,0l-47.67,47.67a32.11,32.11,0,0,1-45.38,0L3435.51,9.07a21,21,0,0,0-29.72,0L3293.22,121.63a14,14,0,0,1-19.82,0l-45.56-45.57a21,21,0,0,0-29.72,0l-83.88,83.82c-17.81,17.8-51.45,27.11-75.48,27.11h-63.93V174.18l22-22a3.5,3.5,0,1,0-4.95-4.95l-17,17v-10.1l22-22a3.5,3.5,0,1,0-4.95-4.95l-17,17v-10.1l22-22a3.5,3.5,0,1,0-4.95-5l-17,17V89.73a3.5,3.5,0,0,0-7,0v34.21l-16.69-16.69a3.5,3.5,0,1,0-4.95,5l21.64,21.64v10.1l-16.69-16.69a3.5,3.5,0,0,0-4.95,4.95l21.64,21.64v10.1l-16.69-16.69a3.5,3.5,0,0,0-4.95,4.95l21.64,21.64V187h-53V174.18l22-22a3.5,3.5,0,1,0-4.95-4.95l-17,17v-10.1l22-22a3.5,3.5,0,1,0-4.95-4.95l-17,17v-10.1l22-22a3.5,3.5,0,1,0-4.95-5l-17,17v-10.1l22-22a3.5,3.5,0,1,0-4.95-5l-17,17V94.18l22-22a3.5,3.5,0,1,0-4.95-5l-17,17V49.73a3.5,3.5,0,0,0-7,0V83.94l-16.69-16.69a3.5,3.5,0,1,0-4.95,5l21.64,21.64v10.1l-16.69-16.69a3.5,3.5,0,1,0-4.95,5l21.64,21.64v10.1l-16.69-16.69a3.5,3.5,0,1,0-4.95,5l21.64,21.64v10.1l-16.69-16.69a3.5,3.5,0,0,0-4.95,4.95l21.64,21.64v10.1l-16.69-16.69a3.5,3.5,0,0,0-4.95,4.95l21.64,21.64V187h-53V174.18l22-22a3.5,3.5,0,1,0-4.95-4.95l-17,17v-10.1l22-22a3.5,3.5,0,1,0-4.95-4.95l-17,17v-10.1l22-22a3.5,3.5,0,1,0-4.95-5l-17,17v-10.1l22-22a3.5,3.5,0,1,0-4.95-5l-17,17V94.18l22-22a3.5,3.5,0,1,0-4.95-5l-17,17V49.73a3.5,3.5,0,0,0-7,0V83.94l-16.69-16.69a3.5,3.5,0,1,0-4.95,5l21.64,21.64v10.1l-16.69-16.69a3.5,3.5,0,1,0-4.95,5l21.64,21.64v10.1l-16.69-16.69a3.5,3.5,0,1,0-4.95,5l21.64,21.64v10.1l-16.69-16.69a3.5,3.5,0,0,0-4.95,4.95l21.64,21.64v10.1l-16.69-16.69a3.5,3.5,0,0,0-4.95,4.95l21.64,21.64V187h-53V174.18l22-22a3.5,3.5,0,1,0-4.95-4.95l-17,17v-10.1l22-22a3.5,3.5,0,1,0-4.95-4.95l-17,17v-10.1l22-22a3.5,3.5,0,1,0-4.95-5l-17,17v-10.1l22-22a3.5,3.5,0,1,0-4.95-5l-17,17V94.18l22-22a3.5,3.5,0,1,0-4.95-5l-17,17V49.73a3.5,3.5,0,0,0-7,0V83.94l-16.69-16.69a3.5,3.5,0,1,0-4.95,5l21.64,21.64v10.1l-16.69-16.69a3.5,3.5,0,1,0-4.95,5l21.64,21.64v10.1l-16.69-16.69a3.5,3.5,0,1,0-4.95,5l21.64,21.64v10.1l-16.69-16.69a3.5,3.5,0,0,0-4.95,4.95l21.64,21.64v10.1l-16.69-16.69a3.5,3.5,0,0,0-4.95,4.95l21.64,21.64V187h-53V174.18l22-22a3.5,3.5,0,1,0-4.95-4.95l-17,17v-10.1l22-22a3.5,3.5,0,1,0-4.95-4.95l-17,17v-10.1l22-22a3.5,3.5,0,1,0-4.95-5l-17,17v-10.1l22-22a3.5,3.5,0,1,0-4.95-5l-17,17V94.18l22-22a3.5,3.5,0,1,0-4.95-5l-17,17V49.73a3.5,3.5,0,0,0-7,0V83.94l-16.69-16.69a3.5,3.5,0,1,0-4.95,5l21.64,21.64v10.1l-16.69-16.69a3.5,3.5,0,1,0-4.95,5l21.64,21.64v10.1l-16.69-16.69a3.5,3.5,0,1,0-4.95,5l21.64,21.64v10.1l-16.69-16.69a3.5,3.5,0,0,0-4.95,4.95l21.64,21.64v10.1l-16.69-16.69a3.5,3.5,0,0,0-4.95,4.95l21.64,21.64V187h-53V174.18l22-22a3.5,3.5,0,1,0-4.95-4.95l-17,17v-10.1l22-22a3.5,3.5,0,1,0-4.95-4.95l-17,17v-10.1l22-22a3.5,3.5,0,1,0-4.95-5l-17,17V89.73a3.5,3.5,0,0,0-7,0v34.21l-16.69-16.69a3.5,3.5,0,1,0-4.95,5l21.64,21.64v10.1l-16.69-16.69a3.5,3.5,0,0,0-4.95,4.95l21.64,21.64v10.1l-16.69-16.69a3.5,3.5,0,0,0-4.95,4.95l21.64,21.64V187H2557.4a3.93,3.93,0,0,1-3.92-3.92V160.33h12.4a6.9,6.9,0,0,0,4.87-11.77L2532.17,110a26,26,0,0,0-18.49-7.65h-60a25.93,25.93,0,0,0-18.48,7.65l-38.58,38.58a6.89,6.89,0,0,0,4.87,11.77h12.31v22.74a3.93,3.93,0,0,1-3.92,3.92,127.42,127.42,0,0,1-90.69-37.56L2294,124.19a135.26,135.26,0,0,0-191.29,0l-4.11,4.1a72.46,72.46,0,0,1-48.08,21.29V115.16a3.5,3.5,0,0,0-3.5-3.5h-45.67a3.5,3.5,0,0,0-3.5,3.5v33.5h-10V108.49a27.17,27.17,0,0,0-54.33,0v39.38h-6.07a99.42,99.42,0,0,1-70.74-29.3,107,107,0,0,0-151.38,0L1593.17,230.69a99.38,99.38,0,0,1-70.75,29.3H1195V43.49a3.5,3.5,0,0,0-3.5-3.5h-33.58a3.5,3.5,0,0,0-3.5,3.5V260h-10.09V205.33A13.35,13.35,0,0,0,1131,192a6.34,6.34,0,0,1-6.33-6.33,13.35,13.35,0,0,0-13.34-13.33h-21.25a3.5,3.5,0,0,0-3.5,3.5V260h-10.25V68.83a3.5,3.5,0,0,0-6.47-1.85,174.3,174.3,0,0,0-26.11,91.79V260h-10.08V143.83a3.5,3.5,0,0,0-3.5-3.5h-22.34a8.18,8.18,0,0,1-8.16-8.17A15.19,15.19,0,0,0,984.5,117H951.25a3.5,3.5,0,0,0-3.5,3.5V260H937.67V106.16a18.5,18.5,0,1,0-37,0V260H890.61V157.35a18.31,18.31,0,0,0-36.61,0V260H512.75a4.75,4.75,0,0,1,0-9.5h6.17a228.82,228.82,0,0,0,51.63-5.91c3.54-.82,6.88-1.59,9.58-2.23a5.37,5.37,0,0,0,.45-10.33,220.76,220.76,0,0,0-68.35-11.08l-129.62-.44-35.54-38.39A3.53,3.53,0,0,0,344.5,181H333a3.5,3.5,0,0,0-3.29,4.7l9.67,26.43a10.69,10.69,0,0,1-7.28,14,3.5,3.5,0,0,0,0,6.76l60.74,16.26a25.31,25.31,0,0,0,6.54.86h26.88a4.75,4.75,0,0,1,4.75,4.75v.5a4.75,4.75,0,0,1-4.75,4.75H273.57a13.26,13.26,0,0,1-13.1-11.07,95.52,95.52,0,0,0-90.9-80.86l0-44.07c0-8.45,4-13.06,9-18.9,3.58-4.12,7.63-8.8,10.46-15.39l.19-.44a3.45,3.45,0,0,0,.28-1.41l-.19-26.73a3.52,3.52,0,0,0-.64-2L182.9,51a6.8,6.8,0,0,1,0-7.8l3.29-4.73a3.47,3.47,0,0,0,.63-2v-10a3.5,3.5,0,0,0-3.5-3.5H121.71a3.5,3.5,0,0,0-3.5,3.5v10a3.49,3.49,0,0,0,.63,2l3.24,4.67A6.78,6.78,0,0,1,122,51l-5.85,8.1,0,0a1.74,1.74,0,0,0-.11.18,2.08,2.08,0,0,0-.2.36l-.09.22a2.91,2.91,0,0,0-.12.39,1.42,1.42,0,0,0,0,.22,4.07,4.07,0,0,0-.07.61v0h0v27h0a3.36,3.36,0,0,0,.08.71h0a3.49,3.49,0,0,0,.21.67h0c2.87,6.6,6.93,11.31,10.52,15.46,5.13,6,9.18,10.65,9.17,19.23l0,43.83a95.52,95.52,0,0,0-90.9,80.86A13.26,13.26,0,0,1,31.43,260H-.52v7h32a20.3,20.3,0,0,0,20-17,88.52,88.52,0,0,1,87.47-75,3.49,3.49,0,0,0,3.5-3.49l0-47.27c0-11.18-5.52-17.6-10.87-23.8a72.1,72.1,0,0,1-6.79-8.78h55.3a69.21,69.21,0,0,1-6.84,8.86c-5.29,6.11-10.75,12.43-10.74,23.49l.06,47.5a3.49,3.49,0,0,0,3.5,3.49,88.52,88.52,0,0,1,87.47,75,20.3,20.3,0,0,0,20,17H426.25A11.76,11.76,0,0,0,438,255.24v-.5A11.76,11.76,0,0,0,426.25,243H399.37a18.39,18.39,0,0,1-4.73-.62l-52.75-14.12A17.69,17.69,0,0,0,346,209.71L338,188h5l35.54,38.38a3.48,3.48,0,0,0,2.55,1.12l131.14.45a213.73,213.73,0,0,1,60.53,8.95l-3.76.88a221.91,221.91,0,0,1-50.05,5.72h-6.17a11.75,11.75,0,0,0,0,23.5H857.5a3.5,3.5,0,0,0,3.5-3.5V157.35a11.31,11.31,0,0,1,22.61,0V263.49a3.5,3.5,0,0,0,3.5,3.5h17.06a3.5,3.5,0,0,0,3.5-3.5V106.16a11.5,11.5,0,1,1,23,0V263.49a3.5,3.5,0,0,0,3.5,3.5h17.08a3.5,3.5,0,0,0,3.5-3.5V124H984.5a8.19,8.19,0,0,1,8.17,8.17,15.18,15.18,0,0,0,15.16,15.17h18.84V263.49a3.5,3.5,0,0,0,3.5,3.5h17.08a3.5,3.5,0,0,0,3.5-3.5V158.77a167.26,167.26,0,0,1,18.58-76.66V263.49a3.5,3.5,0,0,0,3.5,3.5h17.25a3.5,3.5,0,0,0,3.5-3.5V179.33h17.75a6.34,6.34,0,0,1,6.34,6.33A13.35,13.35,0,0,0,1131,199a6.34,6.34,0,0,1,6.33,6.34v58.16a3.5,3.5,0,0,0,3.5,3.5h17.09a3.5,3.5,0,0,0,3.5-3.5V47H1188v216.5a3.5,3.5,0,0,0,3.5,3.5h330.92a106.34,106.34,0,0,0,75.7-31.35l112.12-112.12a100,100,0,0,1,141.48,0,106.34,106.34,0,0,0,75.69,31.35H1937a3.5,3.5,0,0,0,3.5-3.5V108.49a20.17,20.17,0,0,1,40.33,0v43.67a3.5,3.5,0,0,0,3.5,3.5h17a3.5,3.5,0,0,0,3.5-3.5v-33.5h38.67v34.5a3.5,3.5,0,0,0,3.5,3.5,79.42,79.42,0,0,0,56.53-23.42l4.11-4.1a128.26,128.26,0,0,1,181.39,0l25.24,25.23A134.35,134.35,0,0,0,2409.89,194a10.93,10.93,0,0,0,10.92-10.92V160.22a6.9,6.9,0,0,0-6.89-6.89h-12.16l38.39-38.39a19.06,19.06,0,0,1,13.54-5.6h60a19,19,0,0,1,13.54,5.6l38.39,38.4h-12.24a6.9,6.9,0,0,0-6.89,6.89v22.85A10.93,10.93,0,0,0,2557.4,194h481.36c25.47,0,61.27-10,80.43-29.16L3203.07,81a14,14,0,0,1,19.82,0l45.56,45.57a21,21,0,0,0,29.72,0L3410.74,14a14,14,0,0,1,19.82,0l222.61,222.61a39.09,39.09,0,0,0,55.28,0L3756.12,189a32.11,32.11,0,0,1,45.24-.14l36.69,46.66a4.12,4.12,0,0,0,.28.31,105.83,105.83,0,0,0,75.33,31.2h28.65ZM122.48,64.65h59.84l.14,20h-60Zm5.2-9.55a13.8,13.8,0,0,0,1.51-13.45h46.6a13.81,13.81,0,0,0,1.4,13.42L179,57.65H125.84ZM179.79,30v4.66H126a3.31,3.31,0,0,0-.77.09V30Z" transform="translate(0.52 -2.91)"/></svg>