<?xml version="1.0" encoding="UTF-8"?>
<svg width="24px" height="22px" viewBox="0 0 24 22" version="1.1" xmlns="http://www.w3.org/2000/svg" xmlns:xlink="http://www.w3.org/1999/xlink">
    <!-- Generator: Sketch 51.1 (57501) - http://www.bohemiancoding.com/sketch -->
    <title>Fill 8</title>
    <desc>Created with Sketch.</desc>
    <defs></defs>
    <g id="Design" stroke="none" stroke-width="1" fill="none" fill-rule="evenodd">
        <g id="Press-Release" transform="translate(-220.000000, -334.000000)" fill="#245DFF">
            <path d="M244,356 L238.695673,356 L238.695673,348.266197 C238.695673,346.240845 237.865945,344.860563 236.041392,344.860563 C234.645814,344.860563 233.869708,345.791549 233.508467,346.691549 C233.373001,347.012676 233.394167,347.461972 233.394167,347.912676 L233.394167,356 L228.139229,356 C228.139229,356 228.206961,342.298592 228.139229,341.05493 L233.394167,341.05493 L233.394167,343.4 C233.70461,342.373239 235.383819,340.909859 238.0635,340.909859 C241.388053,340.909859 244,343.059155 244,347.690141 L244,356 Z M222.825024,339.184507 L222.791157,339.184507 C221.097836,339.184507 220,338.042254 220,336.595775 C220,335.11831 221.130292,334 222.857479,334 C224.583255,334 225.644403,335.115493 225.678269,336.591549 C225.678269,338.038028 224.583255,339.184507 222.825024,339.184507 Z M220.605362,356 L225.283161,356 L225.283161,341.05493 L220.605362,341.05493 L220.605362,356 Z" id="Fill-8"></path>
        </g>
    </g>
</svg>