<?xml version="1.0" encoding="UTF-8"?>
<svg width="375px" height="218px" viewBox="0 0 375 218" version="1.1" xmlns="http://www.w3.org/2000/svg" xmlns:xlink="http://www.w3.org/1999/xlink">
    <!-- Generator: Sketch 50.2 (55047) - http://www.bohemiancoding.com/sketch -->
    <title>Group</title>
    <desc>Created with Sketch.</desc>
    <defs></defs>
    <g id="Symbols" stroke="none" stroke-width="1" fill="none" fill-rule="evenodd">
        <g id="Footer" stroke="#4F4F88">
            <g id="Group">
                <g>
                    <g transform="translate(230.327889, 93.876366) rotate(-23.000000) translate(-230.327889, -93.876366) translate(-1.672111, -83.623634)">
                        <path d="M322.955412,229.566153 C322.65647,229.751181 322.920514,230.168647 323.074594,230.350383 C323.391974,230.726366 323.866068,230.493928 324.300654,230.572286 C324.539676,230.615744 324.764212,230.597966 324.999284,230.555166 C325.091469,230.538704 325.526713,230.406353 325.526713,230.265442 C325.338393,230.201571 325.196823,229.925016 325.016404,229.822295 C324.573916,229.655704 323.295179,229.356762 322.955412,229.566153 Z M326.770551,230.94761 C326.296457,230.619695 325.350903,230.89625 324.880102,231.118152 C324.209127,231.435532 323.165462,231.207703 322.512266,230.98185 C321.897261,230.768508 321.324397,231.527058 320.826599,231.834561 C320.266246,232.180913 319.479382,232.219762 318.816967,232.244125 C318.331021,232.261904 316.937053,233.816537 317.11418,234.171449 C317.228094,234.399936 317.575763,234.602084 317.386784,234.887857 C316.990389,235.485084 316.997632,235.676038 317.488846,236.320674 C317.927383,236.897489 318.36131,236.164619 318.732025,235.97959 C319.054014,235.818267 319.26999,236.001978 319.583419,236.064532 C319.94755,236.136963 321.185462,235.874894 321.167025,235.417262 C321.154514,235.090006 320.862156,234.993211 321.064963,234.649493 C321.201265,234.417714 321.606878,234.367671 321.746473,234.171449 C322.562309,234.171449 322.893517,233.773737 323.654042,233.57488 C324.215053,233.428043 324.868249,233.718426 325.339709,233.318738 C326.143035,232.637228 329.447207,232.90654 329.22267,231.305814 C328.616225,230.926539 328.166494,231.153051 327.553465,230.99897 L326.770551,230.94761 Z M324.028708,190.572587 C324.099822,190.257182 323.925988,189.788356 323.704744,189.566454 C323.488109,189.348502 323.047597,189.422909 322.768408,189.480854 C322.073729,189.625716 321.718817,189.269487 321.099203,189.106188 C320.880593,189.048243 320.640254,189.059437 320.434813,188.969227 C320.285342,188.903381 320.040393,188.696623 319.890263,188.696623 C319.719721,188.696623 319.774374,188.965935 319.838903,189.054828 C320.293243,189.673784 321.629925,189.569746 322.274561,189.94112 C322.45893,190.047791 322.578771,190.268376 322.683467,190.419164 C322.85796,190.671356 323.484159,190.649627 323.790344,190.675307 L324.028708,190.572587 Z M307.185205,191.85264 C307.324799,191.649175 307.372208,191.473365 307.372208,191.221173 C307.351796,191.21393 307.345211,191.208004 307.337968,191.186933 C307.26027,191.186933 307.172035,191.135573 307.066023,191.135573 C306.886262,191.135573 306.726255,191.232367 306.555055,191.271875 C306.248211,191.343648 305.934123,191.443076 305.652959,191.545138 C305.2243,191.699877 305.076804,191.927047 304.834489,192.278008 C304.717941,192.449208 304.681725,192.484107 304.681725,192.705351 C304.681725,192.86009 304.631024,193.012195 304.664605,193.147838 C304.971449,193.147838 305.359285,192.816631 305.635181,192.687572 C305.980216,192.526907 306.422045,192.416944 306.776957,192.210844 L307.185205,191.851982 L307.185205,191.85264 Z M90.4051013,172.338408 C89.8249947,172.46154 89.4628396,172.981068 88.8721976,173.071936 C88.45539,173.135807 87.9582499,172.899419 87.5783163,173.089056 C87.3550971,173.199678 87.53815,173.650067 87.5269561,173.856167 C87.5019345,174.322359 87.2536937,174.770114 87.0844685,175.186922 C87.0324498,175.314005 86.6367131,176.261535 86.8968063,176.261535 C86.9461911,176.407714 87.1305609,176.094285 87.1522902,176.056753 C87.3386355,175.734764 87.5974117,175.582659 87.9529822,175.493766 C88.5416488,175.347587 88.1900291,174.789868 88.4125899,174.402033 C88.5897167,174.093214 89.2396204,173.583563 89.6221879,173.583563 C89.7532222,173.564467 89.8631856,173.536153 89.9961953,173.549323 C90.1654205,173.566443 90.2154637,173.753446 90.2859194,173.873287 C90.3241102,173.938475 90.3445226,174.014198 90.4222214,174.043829 C90.773841,174.178814 91.3947724,173.277377 91.1886732,173.225358 C91.1353376,173.008724 90.6632191,172.904686 90.6098835,172.576772 L90.4051013,172.338408 Z M102.071104,173.139758 C101.930851,173.107493 101.806402,173.081155 101.662198,173.054816 C101.399471,173.006748 101.049168,173.027161 100.793684,173.089056 C100.468403,173.167414 100.316957,173.254989 100.316957,173.600683 C100.367658,173.667846 100.386754,173.777151 100.419018,173.856167 C100.51713,174.099798 100.985297,174.302605 101.20259,174.402033 C101.391569,174.48895 101.596352,174.436273 101.7985,174.436273 C101.917024,174.346722 102.015793,174.282851 102.071104,174.129429 C102.126415,173.975349 102.259425,173.522984 102.173166,173.37878 L102.071104,173.139758 Z M104.455401,169.336471 C104.076126,169.248896 103.728457,169.130372 103.314284,169.114569 C103.054849,169.104692 102.035547,169.068477 101.951922,169.404293 C101.504825,169.722989 102.878381,170.458494 103.09304,170.580968 C103.382764,170.748218 103.705411,170.856206 104.029375,170.735048 C104.238108,170.656691 104.413918,170.548703 104.557463,170.376844 C104.733932,170.164819 104.761587,170.066708 104.761587,169.796737 L104.455401,169.336471 Z M123.035274,176.909463 C123.054369,176.478169 123.062929,176.013952 123.222936,175.612948 C123.363847,175.258036 123.395453,174.802379 123.205816,174.470513 C122.611882,174.322359 122.236557,173.70472 121.638672,173.907527 C120.974282,174.132721 120.301332,174.459319 119.663281,174.777357 C119.59941,175.001894 119.414381,175.0763 119.492739,175.374584 C119.746247,176.3366 122.985231,178.08087 123.035274,176.909463 Z M143.555639,164.082589 C143.637288,163.954847 143.689966,163.836982 143.623461,163.690144 C143.53391,163.489971 143.286327,163.502482 143.096031,163.502482 C142.979483,163.502482 142.80499,163.536064 142.703587,163.588082 C142.63379,163.62364 142.431641,163.674341 142.431641,163.758625 C142.264392,163.813936 142.601525,164.157654 142.670005,164.184651 C142.820793,164.244571 143.002529,164.253131 143.163853,164.253131 L143.555639,164.082589 Z M143.333737,167.750232 C143.265256,167.686361 143.198752,167.63105 143.129613,167.561911 C142.970265,167.402563 142.442177,167.297209 142.261099,167.459849 C142.176157,167.536231 142.17484,167.660681 142.209739,167.766694 C142.245296,167.873365 142.300607,168.118972 142.380281,168.176258 C142.394767,168.275686 142.628522,168.375773 142.721365,168.38104 C142.835938,168.387625 142.881372,168.41133 142.993311,168.36392 C143.103274,168.317828 143.238918,168.267785 143.333737,168.210498 L143.333737,167.750232 Z M141.801491,168.585823 C141.801491,167.640927 141.349785,167.426268 140.455592,167.52833 C140.046685,167.574422 139.893922,167.57969 139.893922,168.039956 C139.893922,168.407379 139.891947,168.704346 139.86034,169.063209 C139.329618,169.593931 138.660619,168.86567 138.156894,168.653644 C137.881657,168.537755 136.806385,168.467299 136.947955,169.028969 C137.087549,169.586029 139.358591,170.052221 139.911042,170.120702 C140.377893,170.179305 140.982363,169.960036 141.461066,169.915919 C142.111628,169.856658 141.84495,169.653851 142.022735,169.182391 L141.801491,168.585823 Z M147.353,166.726321 C147.61441,166.58541 147.821167,166.287126 148.10299,166.146873 C148.195175,165.820933 148.401274,165.496311 148.000269,165.276384 C147.847506,165.1921 147.661819,165.198685 147.523542,165.105841 C147.28847,164.94781 147.047472,164.363753 146.75709,164.423673 C146.454197,164.486886 146.232294,164.857601 145.922816,164.969539 C145.609387,165.082795 145.434895,165.142715 145.087884,165.157202 C144.509753,165.180248 144.180521,165.300088 143.913185,165.80513 C143.632021,166.337169 143.346906,167.274163 144.134429,167.47697 C144.578892,167.591542 144.856763,167.708749 145.326907,167.613272 C145.810219,167.51516 146.278387,167.163541 146.75709,167.016045 L147.353658,166.726321 L147.353,166.726321 Z M171.860363,132.45789 C171.878141,132.22677 172.029588,131.774405 171.877483,131.57094 C171.693772,131.57094 171.572614,131.708559 171.400097,131.741482 C171.331617,131.754651 171.266429,131.771771 171.195973,131.775722 C171.122225,131.779673 171.069548,131.817205 170.991849,131.826424 C170.787725,131.851445 170.591503,132.036474 170.651423,132.270228 C170.693565,132.438795 170.799578,132.816095 170.940489,132.918815 C171.123542,133.050508 171.526522,132.928034 171.724061,132.867455 L171.860363,132.45789 Z M175.5392,136.057053 C175.418701,136.176894 175.32915,136.273688 175.181654,136.363898 C175.017038,136.464643 174.806988,136.568021 174.670686,136.70564 C174.605498,136.77017 174.54031,136.811653 174.483024,136.875524 C174.436273,136.92886 174.448784,137.008534 174.448784,137.080306 C174.484341,137.092817 174.457344,137.106645 174.517264,137.114546 C174.529775,137.165906 174.569941,137.196196 174.585086,137.250848 C174.616692,137.366079 174.603523,137.471434 174.721388,137.524111 C174.916952,137.611686 175.159266,137.395052 175.249476,137.233728 C175.348246,137.05726 175.425944,136.826798 175.5392,136.63716 L175.5392,136.057053 Z M174.85769,133.976308 C174.997284,133.520651 175.335076,133.129524 175.335076,132.611313 C175.335076,131.993673 174.740483,132.943178 174.602206,133.088699 C174.382938,133.321136 173.922671,133.602301 173.63163,133.720166 C173.09169,133.938117 173.274743,134.368752 173.188484,134.846139 C173.143709,135.097672 173.129223,135.358423 173.086422,135.613249 C173.047573,135.846345 173.033087,136.113023 173.086422,136.329657 C173.355734,136.397479 173.702086,135.81408 173.852874,135.613249 C174.122844,135.254386 174.485,134.877745 174.687148,134.470814 L174.85769,133.976308 Z M166.291735,139.536376 C167.091768,138.858817 168.072221,138.267516 168.947978,137.660413 C169.167905,137.508308 169.411536,137.426 169.645949,137.302208 C170.109508,137.05726 171.391537,136.356654 171.553519,135.869391 C171.807686,135.931945 172.096093,137.07438 171.945305,137.302208 C171.658873,137.734819 170.412401,137.638025 170.412401,138.240519 C170.646156,138.297806 171.859704,138.183233 171.893945,138.308341 C171.931477,138.442009 171.456066,139.162369 171.366515,139.332252 C171.026089,139.977547 170.316924,140.19484 169.629488,140.270563 C169.193585,140.317973 168.718174,140.356163 168.284246,140.287683 C167.791715,140.209326 167.349228,140.046027 166.836284,140.014421 L166.291735,139.536376 Z M47.2704561,83.9508393 C47.0287999,83.8507529 46.7199804,83.748691 46.4618626,83.7295955 C46.0898306,83.7012816 45.8699037,83.6077797 45.6019089,83.9165992 C45.6019089,83.9857379 45.5959828,84.0436827 45.6019089,84.1128214 C45.7395279,84.2682189 45.7895711,84.4005701 45.9936949,84.4881458 C46.2425942,84.5941585 46.6356971,84.5441152 46.9129103,84.565186 C47.0070706,84.5717707 47.1374465,84.6007431 47.2283145,84.5730876 C47.3442041,84.538189 47.4238782,84.3018005 47.4324382,84.1984217 L47.2704561,83.9508393 Z M48.6670578,84.9740921 C48.454374,85.0234768 48.2067916,85.0089906 47.9862063,85.0168922 C47.6839714,85.0280861 47.1631265,85.1314649 46.9129103,85.2987147 C46.4651549,85.5963403 46.4796411,85.8979167 46.5125643,86.3990077 C46.6620356,86.592596 46.7133958,86.6439562 46.9899506,86.63803 C47.2757239,86.6307869 47.6312943,86.3693768 47.8327842,86.1771054 C48.0645635,85.9552031 48.381943,85.7530547 48.5649959,85.4863769 L48.6670578,84.9740921 Z M44.8802326,94.5395954 C44.9809776,94.3216438 45.3233788,93.7876297 45.3233788,93.5670444 C45.5163086,93.4564224 45.7882542,93.1410183 45.9021684,92.9355776 C46.0555905,92.6596813 46.2781512,92.0670639 46.0213504,91.810263 C45.8508082,91.6397209 45.590715,91.5343667 45.3404988,91.5198805 C44.9381774,91.4968342 44.836774,91.6364286 44.5226868,91.7931429 C44.4746189,91.9623681 44.1078546,92.2073167 43.9952573,92.4068312 C43.800352,92.7525247 43.7990351,93.1607722 43.8247152,93.5499243 C43.837226,93.7435126 43.855663,93.9417102 43.892537,94.1293724 C43.9583833,94.4605797 44.1546055,94.4948198 44.3863848,94.6758974 L44.8802326,94.5395954 Z M33.0614663,91.2130363 C33.0614663,90.1364481 31.3125865,90.9509678 30.7278707,90.4110275 C30.3229154,90.03702 30.386128,90.0040969 29.8086552,90.1041833 C29.2864934,90.1943929 29.1706038,89.8618687 28.7182392,89.7973392 C28.0347538,89.6998866 27.4961304,90.864709 27.185994,91.3157567 C26.5558442,92.2303629 26.9094392,93.428767 27.9010857,93.9252486 C28.2197821,94.0845969 30.4783129,95.0959972 30.6429288,94.9313813 C30.6429288,94.5165491 30.2353397,93.972658 30.5922271,93.6184045 C31.2177677,93.6184045 31.9289086,94.7871777 32.5333783,94.1813911 C33.0621247,93.6506693 33.0245923,92.6234658 33.24847,91.946565 L33.0614663,91.2130363 Z M27.7647837,81.7291826 C28.3936166,80.4728337 28.6504174,80.339824 28.6504174,78.8635482 C28.6504174,78.3367772 28.7498455,77.8100062 28.6675375,77.294429 C28.603008,76.8921076 28.3778134,76.3831151 28.3778134,75.9979138 L28.3264533,75.9807938 C28.2928716,75.7753531 27.5092997,75.7417714 27.3387576,75.7417714 C27.2327449,76.4996632 27.7891468,76.8407475 26.93051,77.430731 C25.5885609,78.3525803 24.4790494,76.4002352 23.6605789,76.9362247 C23.2180913,77.2252903 22.9520719,77.6473656 22.5365813,77.9594774 C21.4395806,78.7832156 21.1564412,78.7720217 20.8673756,80.193645 C20.723172,80.9028105 20.4084263,81.6600439 20.5269498,82.394231 C20.5618484,82.611524 19.7223071,82.8768849 19.505014,83.1106396 C19.2337269,83.4036559 17.5355489,86.2877273 19.0111662,85.5502479 C19.3594935,83.8138789 21.2756231,85.3395395 22.2810973,85.8057318 C23.4571136,86.3509398 23.8100502,86.3147243 22.877007,85.1578034 C21.9999333,84.0693628 23.0982509,84.2563665 23.558517,84.9359012 C24.2900703,86.0177571 25.2975199,86.8118645 26.2832402,85.4988877 C26.812645,84.793673 26.0297316,84.4190071 26.1298181,83.792808 C26.2042245,83.3305665 26.9937226,82.4534927 27.3051759,82.1045069 L27.7647837,81.7291826 Z M31.8518683,73.7295061 L31.7669265,73.7295061 C31.7386126,73.7077768 31.4976148,73.6610259 31.4607408,73.6610259 C31.1499459,73.6610259 30.8516618,73.5187977 30.5237469,73.5925457 C29.9732712,73.7163368 29.8521138,73.9810393 29.7744151,74.5137365 C29.7421504,74.7356388 29.7915352,74.923301 29.7915352,75.1445448 C29.7915352,75.4151734 29.777049,75.5909832 29.9791973,75.7931316 C30.512553,75.8681965 30.8977543,75.5284292 31.2901987,75.1794434 C31.475227,75.0148274 31.6800093,74.9812458 31.8689884,74.8548207 C32.0915491,74.7066664 32.2561651,74.3510959 32.2778944,74.087052 L31.8518683,73.7295061 Z M462.958639,354.637397 L320.758777,354.637397 L320.758777,353.846582 C320.673177,353.475208 320.673177,352.971483 320.673177,352.584307 C320.673177,352.077948 320.694906,351.743449 320.400573,351.373392 C320.131261,351.335201 319.958085,351.096837 319.958085,350.827525 C319.958085,350.329727 320.153649,350.112434 320.451933,349.735792 C321.477819,349.093132 323.278718,348.556484 323.278718,347.091402 C323.278718,345.420221 322.96068,343.938677 322.75063,342.315564 C322.61762,341.281776 322.717048,340.433016 322.717048,339.41569 C323.34654,338.945547 324.178179,339.49273 324.488316,338.426677 C324.647664,337.87686 324.851788,336.164854 324.624618,335.663763 C324.894588,334.946696 324.690464,333.903689 324.72668,333.139213 C324.755652,332.528159 325.547126,331.617503 325.42531,331.125631 C325.355513,331.109169 325.32654,331.040689 325.237648,331.040689 C324.997308,330.314403 324.950557,329.521613 324.70956,328.738041 C324.457368,327.918912 325.990272,327.471157 325.731495,326.435393 C325.865164,326.31687 325.851336,325.355513 326.03834,325.053936 C326.263534,324.689147 326.694828,324.584452 326.957555,324.251927 C327.329587,323.783101 326.580255,322.221225 327.264399,321.829439 C327.292055,321.634534 327.642357,321.169658 327.741785,320.960267 C328.555647,320.514487 329.243741,321.441604 329.80146,320.175378 C330.051676,319.609099 330.106329,318.334313 330.50009,317.940552 C330.608078,316.953515 330.536306,315.852563 330.755574,314.870794 C331.009083,313.735602 331.750513,313.498555 332.543962,312.78939 C333.03781,312.348219 332.925212,311.55082 333.412475,311.186031 C333.473713,310.939107 334.026822,310.979931 334.161807,310.760005 C334.287574,310.553247 334.213167,309.979725 334.213167,309.719632 C334.213167,308.832023 334.124933,307.681686 334.365931,306.836877 C334.760351,306.32986 334.542399,304.733744 334.365931,304.158247 C334.172343,303.524805 333.598821,303.050711 333.804261,302.384345 C333.998508,301.754195 332.976572,300.234461 332.935748,299.467351 C332.856074,297.986466 332.325352,297.275325 331.862452,295.936668 C331.78607,295.716083 331.367287,294.191739 331.624088,294.128526 C331.699811,294.434712 332.063283,295.261084 332.339179,295.425042 C332.941015,295.782587 333.028591,295.30586 333.548777,295.30586 C333.548777,295.677892 333.676519,297.677646 333.207693,297.522907 C333.207693,297.108733 332.971963,296.362694 332.884387,295.920206 L332.850147,295.920206 C332.722405,296.298165 332.354324,296.660978 332.680264,297.250303 C332.823809,297.511713 333.168185,298.582375 333.412475,298.59752 C333.708784,298.615299 333.778581,298.948481 333.616599,299.228987 C333.269589,299.828847 333.829941,299.913131 333.804261,300.474142 C333.768046,301.269566 334.162466,301.068076 334.349469,301.633697 C334.710308,301.633697 334.496307,301.147092 334.621415,301.105609 C334.621415,300.904777 335.128432,301.183307 335.217325,301.05359 C335.307534,300.924531 335.272636,300.314794 335.234445,300.167298 C335.234445,299.419941 334.916407,299.322489 335.183084,298.512578 C335.297657,298.369033 335.285805,298.133303 335.353627,297.966712 C335.445812,297.741517 335.558409,297.576243 335.558409,297.318783 C335.558409,296.809132 334.940111,296.83152 334.961841,296.362694 C334.973693,296.124989 335.388525,295.841849 335.268685,295.680526 C335.077072,295.680526 334.480504,295.567928 334.604295,295.28874 C334.781422,294.889711 335.200863,294.833741 335.200863,294.350429 C335.200863,294.168034 335.223909,293.944815 335.404987,293.855922 C335.77241,293.674186 336.073986,293.562248 336.392682,293.310056 C336.970155,293.261988 337.267122,292.81555 337.942706,292.81555 C338.497133,292.81555 338.732863,292.67398 338.197532,292.235443 C337.940731,292.024076 336.638289,290.774312 336.443384,290.785506 C335.981143,290.811844 334.819612,290.853986 334.434411,291.05811 C333.390746,291.609902 332.522232,291.266843 332.083695,292.593647 L332.050114,292.593647 C331.940809,292.151818 330.945212,291.245114 330.53433,291.10947 C330.53433,290.683444 330.772694,290.05066 330.772694,289.505452 C330.741088,289.498868 330.746356,289.502818 330.738454,289.471871 C330.164932,289.471871 330.304526,289.484381 330.38025,289.096546 C330.488238,289.070208 330.162957,288.102924 330.040482,287.834271 L329.087027,285.753526 C328.384446,284.22128 328.196784,283.011024 327.877429,281.403714 C327.730591,280.666893 328.354157,280.732739 328.183615,280.038719 C326.292507,279.727265 326.944386,282.996538 326.03834,280.618825 C325.916524,280.300129 322.205422,271.990316 323.687624,272.277406 C324.314481,272.399222 324.920268,272.862122 325.578073,272.550668 C325.844751,272.424902 327.151143,271.499102 326.736311,271.08427 C326.358353,272.243166 323.391315,270.643099 322.87047,270.350082 C322.367404,270.068918 322.550457,266.5277 322.478684,266.615276 C322.10336,267.07225 321.633875,268.110647 321.49033,268.696021 C321.168341,270.018217 320.76602,267.960517 320.571115,267.570048 C320.468394,267.363291 320.182621,266.11616 319.975205,266.324893 C319.088254,267.215136 319.617659,270.538403 318.118996,270.538403 C316.888327,270.538403 317.297891,269.49408 317.130642,268.798083 C316.56107,266.425638 316.756634,265.178508 316.756634,262.862032 C316.756634,262.558481 316.417525,261.4358 316.994998,261.395634 C318.129531,261.315301 318.692518,261.657702 319.464237,260.627865 C319.778983,260.207106 320.193157,260.818819 320.571115,260.884007 C321.086033,260.971583 320.914174,260.099118 320.775239,260.099118 C320.162209,260.099118 320.020639,260.273611 319.923845,259.467652 C319.877094,259.080475 319.359541,259.655314 319.208753,259.655314 C318.579262,259.655314 318.619428,258.557655 318.033395,258.938905 C317.91553,259.016604 317.370322,259.212826 317.557326,258.836843 C317.702847,258.543168 318.034054,258.360116 318.187476,258.017714 C318.315876,257.729307 318.148627,257.358592 318.35736,257.079404 C318.197353,257.132081 317.248507,257.841246 317.216242,257.199244 C317.205048,256.972074 317.249165,256.048908 317.488846,256.141751 C317.753548,256.243813 318.217107,256.729759 317.965574,256.039031 C317.783838,255.539915 317.861536,255.057261 317.352544,255.595885 C316.616381,256.375506 316.869231,254.448182 316.756634,254.589093 C317.116814,254.05047 316.566997,252.269326 317.454606,252.201504 C318.436375,252.127097 320.222787,251.948654 321.030723,252.457646 C321.311228,252.633456 322.491854,252.423406 322.955412,252.423406 C322.955412,252.049399 322.346333,251.797866 322.717048,251.331673 L322.699928,251.297433 C321.999981,251.120306 321.831414,251.309285 321.831414,250.461184 C321.423825,250.461184 321.236822,251.433735 320.588235,251.433735 C320.274806,251.433735 319.884337,250.748933 319.821783,250.495424 C319.25748,250.495424 318.911786,252.105368 318.697785,250.98993 C318.552923,250.236648 318.500905,249.624277 318.919029,248.960545 C319.339788,248.292863 319.135664,248.54703 319.276575,247.868812 C319.457653,247.002932 320.437447,246.492623 320.911541,245.821648 C321.101178,245.553654 322.175791,243.683616 321.729353,243.536121 C321.566054,244.030627 320.503952,244.054332 320.299169,244.423071 C319.94755,245.055196 318.911786,245.08812 318.305999,245.08812 C318.00574,243.866669 318.966439,244.091864 319.464237,243.212156 C320.018664,242.231045 320.52173,241.515954 321.218385,240.636246 L323.347198,238.333598 C323.858166,237.781147 324.138013,236.924486 324.72668,236.525457 C326.212832,235.518007 328.596471,234.839789 329.546635,233.250258 C330.111596,232.304045 330.075381,231.031235 330.53433,230.112019 C331.130898,228.918883 333.786483,230.528827 333.786483,229.412731 C333.545485,229.291574 332.24041,228.916908 332.168637,228.627842 C332.098182,228.610064 332.066575,228.469152 332.066575,228.38882 C331.639232,228.38882 330.253166,229.268527 329.717177,229.446313 C328.589887,229.821637 326.820595,229.739329 325.919158,228.883985 C325.514202,228.499442 325.092786,227.769205 324.522556,227.996375 C323.130564,228.552777 322.395059,228.527756 320.979362,228.218278 C319.354932,228.218278 317.249165,228.323632 315.699141,228.781923 C314.889889,229.020945 312.803876,230.612452 312.038083,230.316802 C311.38357,230.063952 311.365791,229.183586 310.948325,228.883985 C310.84758,228.067489 310.596047,227.38993 310.863383,226.529977 L311.646297,224.005426 C312.122366,222.471864 312.807168,220.964641 313.19632,219.400131 C313.476168,218.274816 314.243278,219.075508 314.779926,218.052255 C315.067016,217.506389 315.012364,217.111311 315.546378,216.705039 C315.95265,215.809528 317.079281,215.239298 317.079281,214.094888 C317.079281,213.238227 317.620539,212.35391 317.573129,211.6724 C317.534938,211.124558 316.728979,211.112047 316.38131,210.734089 C316.059979,210.387737 317.349252,209.650916 317.623831,209.421112 C317.951087,209.14785 319.73289,209.017474 320.110849,209.25057 C320.675152,209.600214 321.034673,210.089453 321.677334,210.410125 C322.070437,210.607005 323.270158,210.961917 323.669845,210.786108 C324.057022,210.615565 325.594535,209.30193 325.645237,209.30193 C326.119331,209.30193 326.447904,209.557414 326.922656,209.557414 C327.641699,209.557414 326.445929,208.340573 326.445929,207.936935 C326.445929,206.814913 324.359915,207.341684 325.321931,206.606838 C325.543833,206.436954 326.497289,205.885162 326.497289,205.617825 C325.751908,205.617825 325.333125,206.34016 324.743141,206.521238 C323.575027,206.880759 323.831827,205.613216 323.32942,205.446625 C323.32942,205.839728 323.349832,206.315139 323.091056,206.623958 C322.683467,207.541857 322.391767,207.464158 321.796516,208.158837 C321.255259,208.790304 320.730463,207.824338 320.399914,208.53482 C320.260978,208.831787 319.408268,208.854175 319.156735,208.704704 C318.84133,208.517041 318.799189,207.29625 318.799189,206.930802 C318.634573,206.889977 318.248055,207.975126 318.203279,208.193077 C318.13875,208.511774 317.876681,208.782402 317.828613,208.977308 C317.239947,209.12217 315.565473,210.436463 315.068991,210.853929 C314.232742,211.557827 312.618189,212.639025 311.561355,212.918213 C311.04907,213.053198 308.454064,209.386872 310.130513,209.386872 C310.138415,209.355924 310.133805,209.360534 310.164753,209.35329 C310.164753,208.411687 309.667613,207.568854 309.568844,206.641078 C309.452295,205.551321 309.936925,204.90866 310.266815,203.928207 C310.817949,202.290608 311.135987,200.347481 311.135987,198.606503 C312.011744,194.430526 314.579753,189.11804 319.769764,191.238293 C320.804211,191.661027 322.248881,193.199857 323.210238,193.199857 C323.84368,193.199857 324.475147,193.201174 324.913683,193.727945 C325.336417,193.789182 325.782856,193.332208 326.054143,192.995075 C326.429467,192.528224 325.934961,192.463036 325.934961,191.971164 C325.934961,191.776917 326.023853,191.268583 325.850019,191.169155 C325.735446,190.766175 324.371768,189.918074 323.993151,189.582915 C323.158219,188.846095 322.518851,188.823048 321.45609,188.730205 C320.889811,188.68082 320.495391,188.202775 319.871826,188.098738 C319.228507,187.992067 317.571154,188.300887 317.129983,187.860374 L317.079281,187.126846 C317.073355,187.105116 317.067429,187.097873 317.062161,187.076144 L317.045041,187.058365 C317.008167,187.053756 316.953515,187.03927 316.942979,187.007664 C315.691898,187.007664 314.527076,187.622669 313.19632,187.451468 C312.578681,187.95651 312.227062,188.887578 311.475755,189.037707 C311.052362,189.122649 310.041621,189.862763 309.892149,189.258951 C309.470732,189.258951 309.125697,189.20825 308.768152,189.532214 C308.6358,189.652054 307.71461,190.625922 307.576332,190.486986 C307.164134,190.072813 308.444846,188.459576 308.444846,188.030916 C308.212408,188.088861 307.035075,189.870664 306.86124,190.14656 C306.310106,191.015733 305.972973,191.350232 304.833831,191.391057 C304.161539,191.416079 303.990997,190.968323 304.306401,191.919803 C304.388709,192.168044 304.052892,192.251669 303.931735,192.43143 C303.313438,193.353279 303.304219,194.186236 303.04676,195.229901 C300.493896,195.229901 301.547438,194.740662 301.547438,192.841653 C301.341339,192.892354 300.830371,193.762185 300.713164,193.984087 C300.649293,194.105245 300.391834,195.464972 300.321378,195.280603 C300.146227,194.823629 300.228535,193.32299 300.610444,192.995075 C301.469081,192.258254 301.037787,192.49991 300.508382,192.49991 C300.508382,191.546454 301.506613,190.78132 301.343314,189.515094 C301.215572,188.52674 300.686167,187.149892 300.730284,186.223433 C300.754647,185.704564 301.187258,185.470809 301.292612,185.0461 C301.629746,185.0461 302.280966,186.314301 302.654315,186.563859 C303.385869,187.052439 303.616989,186.697527 304.425583,186.461797 C304.708064,186.379489 305.970339,186.109519 305.907126,185.933051 C305.766874,185.541265 305.201253,185.013177 304.783129,184.789958 C304.389367,184.614806 302.203926,183.939881 302.262529,183.715345 C302.313231,183.52439 303.473444,181.513442 302.926919,181.788021 C301.166846,182.669704 299.643161,184.082109 299.299442,186.137833 C299.219768,186.615219 299.349486,187.265781 299.14602,187.672712 C298.888561,188.188289 298.197833,187.755679 298.277507,187.996676 C298.559988,188.848728 299.492372,190.63975 298.107623,191.391057 C297.633529,191.648516 297.017207,193.311137 296.591839,192.721812 C296.303432,192.323442 296.132232,190.54098 296.132232,190.010258 C294.166059,191.965237 298.548135,195.457729 296.966505,197.54901 C296.906585,197.787374 295.914939,199.528352 295.706206,199.544814 C294.905514,199.61066 294.777772,200.244761 295.723326,200.244761 C295.723326,200.84528 294.893661,201.642021 294.547968,202.120066 C293.940206,202.962899 293.384462,204.037512 292.913002,204.969239 C291.875263,207.021012 292.940658,209.416503 292.538995,211.501858 C292.582453,212.172174 293.189557,212.650219 293.321908,213.344239 C293.418702,213.848623 293.421995,214.665776 293.356148,215.186621 C293.184948,216.524619 293.614925,217.969947 293.032843,219.21181 C292.922221,219.448199 292.177498,220.861262 291.976667,220.389143 C291.789663,220.362146 291.548007,219.627301 291.346517,219.570014 C291.301741,219.342844 290.844109,219.148598 290.801309,218.973446 L290.732829,218.973446 C290.727561,218.997809 290.0421,219.594378 290.171159,219.638495 L290.171159,219.689855 C290.686078,219.816938 291.505207,221.445319 291.584222,221.941142 C291.790322,223.222513 292.039221,224.229304 292.487635,225.437585 L294.258902,227.979914 C294.663199,228.560679 295.355244,229.196096 295.620605,229.822295 C296.246146,231.29462 296.078896,233.040866 295.433602,234.461831 C293.984981,235.515373 293.790735,237.4157 293.508912,239.016425 C293.386438,240.115401 292.660811,241.194623 292.572577,242.273845 C292.314459,242.607028 292.225566,243.175941 291.993787,243.553241 L291.312277,244.662094 C290.761143,245.557604 290.287049,246.269404 289.541009,247.016102 C289.21902,247.338749 288.455203,247.915563 288.33207,248.329078 C287.921188,248.639873 287.703237,249.997626 287.378614,250.495424 C286.629282,251.306652 284.910692,253.094381 284.738833,254.214428 C284.519565,255.639343 284.717104,256.164797 283.801839,257.403368 C283.329062,258.044053 283.245437,258.85528 283.273751,259.638194 C283.299431,260.348018 283.940116,261.189534 283.818959,261.80454 C283.357376,262.266123 282.020694,262.797503 281.383302,262.879152 C279.816158,264.33304 277.532605,265.201554 275.916735,266.615276 C274.14876,268.162007 273.244031,267.8308 271.131679,267.911133 C269.9741,267.954591 269.499347,268.707215 268.798083,269.46379 C268.35823,269.937884 268.132376,269.546757 267.623384,269.718616 C266.928705,269.954346 266.577743,270.562108 265.818535,270.760305 C265.06196,270.956528 264.28168,270.883438 263.654823,271.476056 C262.825817,272.260944 263.799685,272.748866 263.638361,273.403379 C262.817257,273.403379 262.535434,272.814712 262.088337,273.795823 C260.597575,274.416096 256.540122,274.414779 255.888901,275.979289 C255.598518,276.679236 254.986147,276.029991 254.424478,276.029991 C252.920546,276.029991 253.113476,276.81488 253.113476,277.855911 C252.093516,278.108103 251.117014,278.085056 250.116149,278.554541 C249.214712,278.978592 247.854984,279.027977 247.169524,279.492852 C246.187096,280.159876 246.576906,279.374987 246.216068,279.27095 C246.160757,279.050364 244.569909,279.590305 244.700284,280.072959 L245.211252,281.94958 C245.282366,282.212307 246.011286,282.646894 246.011286,282.768051 C245.132237,282.989295 243.935808,282.536272 243.133799,283.041313 C242.097377,283.693851 241.006303,284.809947 239.846748,285.207659 L235.572001,286.298734 C234.220175,286.644427 233.0007,286.39026 231.72328,287.066502 L224.314904,290.98963 C222.600265,291.102885 222.396799,291.427508 221.130574,292.439567 C220.273912,293.124369 218.648824,292.813574 217.553798,293.258696 C216.324446,293.961935 216.427167,294.935145 214.471529,294.674393 L210.520747,294.145646 L210.503627,294.179887 C210.406832,294.193056 210.423294,294.301702 210.350205,294.350429 C210.302795,294.729045 209.89784,294.694805 209.958419,295.186019 C210.161884,295.330881 211.014595,295.96169 211.014595,296.209272 C210.13357,296.916462 208.45778,296.414054 207.472059,296.243512 C205.901623,295.972883 206.136036,297.551221 204.26995,296.516775 C203.363904,296.013708 203.685893,296.243512 202.874007,296.414054 C202.52568,296.487144 202.271512,296.337014 201.919893,296.533236 C200.538436,297.305614 201.447116,298.550769 199.604076,297.215405 C198.545266,296.448953 196.282784,295.137951 195.022485,295.509983 C194.576046,295.642335 194.151996,295.292032 194.222451,295.305201 C192.645431,294.316189 191.390399,293.988932 190.271669,292.490927 C189.56382,292.490927 188.437189,293.011772 187.972313,292.081363 C185.285122,291.693527 182.310842,290.673567 179.985147,289.130786 L172.423349,284.115926 C171.815587,283.712288 171.19729,283.581912 170.66986,283.126914 C165.180906,279.739117 160.079129,275.309632 155.614745,270.844589 L155.614745,270.811007 C155.56536,270.761622 155.531778,270.684582 155.461323,270.674705 C155.435642,270.569351 155.130774,270.501529 155.103777,270.418563 C155.031346,270.41132 155.053075,270.42844 155.018835,270.367203 C154.907554,270.339547 154.854877,270.222999 154.797591,270.128839 C153.252177,268.584083 151.205013,267.259912 149.807094,265.591365 C148.772647,264.356087 146.445636,262.617742 145.889893,261.224433 C145.262377,260.730585 144.504485,259.656631 143.965862,259.023847 C143.461479,258.432547 142.57782,257.595639 142.245955,256.925981 C141.898944,256.709347 141.714574,256.240521 141.343201,256.022569 C140.840134,255.119815 139.90314,254.265129 139.214387,253.39464 L137.187636,250.836508 L133.458097,246.026431 C132.554026,245.616208 132.133926,243.636865 131.210102,243.058076 L131.005978,242.71765 C130.145366,241.542951 128.707939,240.727114 127.736047,239.680815 L125.232567,236.986381 C123.595626,235.224332 123.209767,232.976337 121.025642,231.459236 C120.027411,230.765874 118.788182,231.461212 118.233097,230.350383 C118.173177,230.313509 118.161325,230.293097 118.131036,230.231201 C117.365242,229.75184 116.868102,228.608088 116.019342,228.184038 C115.975225,228.107656 115.838923,228.014154 115.78032,227.962135 C104.193333,217.307533 92.6893121,207.281105 83.0309654,194.683376 L79.5397905,190.128782 C79.084792,189.534848 78.0773424,188.860581 78.1774289,188.065156 C78.2175952,188.036843 78.2182537,188.048695 78.2281307,187.996676 L78.2966109,187.928854 C78.4618853,187.105775 77.2378011,185.242322 76.7979473,184.500234 C76.8308705,184.065648 76.8097997,183.401258 77.0876714,183.050296 C77.3003552,182.781643 77.7270397,182.771108 77.9390651,182.470848 C78.5362917,181.626039 78.48559,180.306478 78.9267607,179.348413 C79.8123945,177.42504 81.2596979,175.802586 82.8268417,174.402033 C83.1830706,174.083995 85.7550301,172.134284 86.0282926,172.201447 C86.1547176,172.711098 85.9617877,173.287254 86.0625327,173.736985 C86.2271486,174.475123 85.1433172,174.078069 84.785113,174.078069 C84.5632107,174.078069 84.2879728,174.594305 84.0871413,174.708877 C84.0173442,175.271205 84.0660705,175.862506 84.3939855,176.346477 C85.3224194,177.174166 85.5252262,177.936667 86.9481665,178.103916 C88.0879673,178.237585 88.5574519,177.741103 89.5537076,177.48957 C90.2608977,177.311126 90.9522847,177.508665 91.6996411,177.250547 C92.3962958,177.010208 92.8618296,176.249024 93.5558505,176.346477 C93.6058937,176.39652 93.6355246,176.443271 93.6921525,176.483437 C93.9252486,177.110953 94.1780987,177.707521 94.2202404,178.410761 C94.2525051,178.949384 93.4472039,179.277299 93.1811846,179.690156 C92.5246962,180.708799 92.5437916,182.223266 92.2086336,183.374261 C92.037433,184.590443 91.8438446,185.166599 92.991547,185.881691 L95.1546005,187.229566 C95.3890136,187.375745 94.9478429,187.45081 94.8141747,187.400108 C94.4750659,187.271049 93.3109019,187.179523 93.1449691,186.888482 C92.946113,186.86346 92.0578454,186.095033 92.0038513,186.71794 C91.9327373,187.537727 91.7444166,187.777408 91.3908216,188.457601 C90.6309544,189.920049 90.3853474,191.24817 90.02846,192.858114 C89.8131424,193.830665 89.2448881,195.333938 89.2448881,196.252495 L89.2620082,196.270274 C89.6123109,196.270274 89.9889522,196.222864 90.283944,196.423037 C90.4887262,196.562632 90.7962288,197.317231 91.0675159,197.122984 C91.2584704,196.985365 91.2492519,194.953346 91.238058,194.598434 C91.2189625,194.031497 91.8576724,193.656831 91.7826075,193.267679 C91.646964,192.559172 91.6759364,192.037668 92.0380915,191.374595 L93.4175731,188.849387 C93.5229273,188.656457 93.7224418,187.604232 93.9627811,187.604232 C94.1155447,188.073058 94.0898646,188.532666 93.9799011,189.105529 C93.7902636,190.093225 94.2274835,190.930791 95.4100845,190.930791 C96.2878167,190.930791 96.3345676,190.629873 96.6532641,190.02672 C96.900188,189.559211 96.7658614,188.691356 96.7217443,188.150757 C96.663141,187.443567 97.8780067,186.948402 98.4587718,187.041904 C100.356464,186.25043 102.988344,185.643327 102.988344,183.186598 C103.729774,183.004204 104.654916,183.613941 105.39042,183.511221 C106.546682,183.349239 107.643025,183.999801 108.830235,183.493442 C109.283258,183.301171 110.08395,182.777034 110.533022,182.777034 C111.69126,182.777034 112.250954,182.954161 112.900858,181.787363 C113.785833,180.197831 113.305155,180.386152 114.961191,179.655916 C115.809292,179.281908 114.126917,176.571671 114.126917,176.227295 C114.42586,176.153547 115.188361,176.225319 115.472159,176.346477 C115.472159,176.483437 115.67299,176.731678 115.761883,176.824521 C116.243878,177.303883 116.787111,177.24067 116.920121,178.069018 C116.998478,178.558256 117.614142,178.686657 117.413969,179.229231 C116.771308,180.967575 118.478704,180.000951 119.32088,180.218902 C120.347425,180.484263 118.803986,181.726126 118.74209,181.992804 C118.647271,182.396442 119.266886,182.308866 119.457182,182.214706 C119.776537,182.055358 119.872014,181.818969 120.155812,181.651061 C120.668755,181.348167 121.30088,181.703738 121.552413,181.566777 C121.957369,181.344217 121.236351,180.334792 121.927079,180.610688 C124.643901,181.697153 123.019471,178.945433 124.566202,178.171738 C125.542704,177.683817 126.558713,178.495702 126.558713,177.097125 C126.558713,176.077823 127.196106,175.571465 127.240223,174.640397 C127.267221,174.072801 127.242857,173.816 127.649129,173.446602 L128.585465,172.593892 C128.585465,173.174657 129.028611,173.745545 129.028611,174.504095 C128.941035,175.115808 128.950254,175.017697 129.505339,175.391704 C129.810208,175.596486 130.099932,175.784149 130.408093,175.561588 C131.028366,175.113174 131.979187,176.967408 132.400604,177.369729 C133.918363,178.817691 135.841077,175.517471 135.227389,174.078069 C135.249118,174.05173 135.288626,173.971398 135.295869,173.941108 C136.807702,173.728425 137.384516,175.551711 138.821284,174.060949 C138.938491,173.943084 139.207803,173.563809 139.366492,173.532202 C139.42773,173.03177 140.132944,173.088398 140.132944,172.269927 C140.132944,172.022345 140.593869,171.394829 140.728196,171.127493 C141.530204,169.53006 142.430324,170.88847 143.589879,170.88847 L143.606341,170.87135 C143.606341,170.594137 143.400242,170.363675 143.368635,170.137822 C143.027551,169.943575 142.976191,169.471456 142.976191,169.113911 C143.004505,169.093498 143.002529,169.104692 143.010431,169.080329 C143.858532,169.080329 144.338552,168.182184 145.071423,167.971476 C145.960349,167.715333 146.809767,167.835174 147.694084,167.835174 C148.411809,167.835174 148.367034,167.20239 148.886562,167.101645 C151.097683,166.672327 156.159294,168.440302 157.946365,166.470178 C159.129624,165.165762 158.568613,162.973077 159.904636,162.529931 C160.100858,162.465402 160.237819,162.29025 160.364902,162.120367 C160.680965,161.698291 160.9832,161.212345 161.182056,160.72179 C161.33021,160.424822 161.727922,159.744629 161.982748,159.562235 C162.030816,159.11843 161.770064,158.391486 162.05057,158.026697 C162.285641,157.721829 163.536722,157.60133 163.481411,157.378769 C163.015877,157.261563 161.735165,157.61845 161.863566,156.901383 C161.995259,156.165879 163.038924,156.469431 163.038924,156.150734 C163.038924,155.758948 162.600387,155.374405 162.391654,155.059001 C161.935338,154.370248 163.495898,154.629683 163.668415,154.649437 C164.646234,154.760717 165.068968,154.374857 165.644465,153.609064 C166.618333,152.31189 166.133045,151.106243 166.5808,149.754417 C167.01407,148.448025 169.075061,146.518068 168.999338,145.301885 C169.406927,144.322749 170.875301,142.191302 171.826123,141.771202 C173.378122,141.0864 173.804148,140.303486 174.125478,138.666545 L174.176838,138.649425 C174.482366,138.038371 175.864481,138.416988 175.930986,136.961124 C175.971811,136.053103 176.41364,135.13718 176.952922,134.419454 C177.447428,133.76099 178.55233,130.470647 178.348865,129.660078 L178.331745,129.643616 C177.79378,129.643616 176.66649,130.907867 175.879626,131.093554 C174.659492,131.380644 173.872628,132.161582 173.001481,133.037997 L172.830939,132.969517 C172.712415,132.488838 172.836865,131.524189 172.541873,131.127135 C170.066049,131.127135 169.136957,134.247595 171.400097,134.419454 C173.044939,134.543904 171.985471,135.080552 171.434995,135.476947 L168.164406,137.830955 C166.607139,138.952319 165.934847,139.383612 164.247863,139.383612 C164.239303,139.357932 164.193869,139.339495 164.162263,139.332252 C164.154361,139.297354 164.12934,139.272332 164.094441,139.263772 C164.085223,139.225581 164.015425,139.168953 163.992379,139.16171 C163.883733,138.501929 161.319675,136.450156 160.87587,138.223399 C160.416921,140.056562 157.663884,139.900507 156.141516,139.280892 C155.540338,139.030676 154.62639,138.856183 154.45519,138.189159 C154.286623,137.530037 154.727794,137.39571 154.727794,136.892644 C154.231312,137.018411 153.505685,137.636708 153.365432,138.137799 C153.202792,138.71593 154.334691,139.196609 154.693554,139.485674 C155.519926,140.150723 152.68919,142.495512 151.985951,142.521851 C151.625113,142.535679 150.6789,142.207764 150.520869,142.282828 C149.811045,142.621937 149.265837,142.662104 148.494117,142.760215 C146.512141,143.013723 144.313531,142.907711 142.618645,144.10809 C141.805442,144.684246 141.073889,145.191921 140.064464,145.336125 L136.249325,145.881991 C135.632344,146.225051 134.493202,146.377815 134.03557,146.717582 C133.566743,147.065909 133.457438,147.778367 132.80951,148.133938 L130.101249,149.617457 C129.932682,149.7103 129.532336,149.535149 129.436859,149.651697 C129.413812,149.680011 129.505339,150.252874 129.420397,150.436585 C129.101042,151.120729 128.39912,153.028957 127.614889,153.028957 C127.290267,153.028957 128.241088,153.856646 127.734071,154.018628 C127.178986,154.196414 126.143223,153.912616 125.656618,153.643304 C123.755633,152.59042 123.240056,152.074843 122.574349,150.061261 C122.443973,150.446462 122.713943,151.984634 122.692873,152.005705 C121.913252,152.787301 121.605749,151.785778 121.057907,152.772815 C120.440268,153.886936 117.716862,151.513832 117.362608,150.913972 C117.213137,150.660463 117.699742,149.992781 117.53315,149.890719 C117.181531,149.675401 115.412897,151.594165 115.097493,150.368105 C114.913782,149.65433 114.304044,150.96599 114.075557,151.016692 C113.140539,151.222791 113.22548,151.52766 111.963864,151.52766 C109.225313,152.055089 107.721382,147.993026 105.066456,148.286701 C104.137363,148.39008 103.744919,148.163568 102.937642,147.894915 C102.441819,147.202211 101.211809,147.354317 100.502643,147.502471 C99.2278575,147.767832 98.4943288,147.669721 97.2498323,147.587413 C96.3437861,146.882198 94.6890666,147.490619 93.6052353,146.66688 C92.1421287,145.203774 89.6182371,144.323408 87.8489449,143.135539 C85.9288645,141.847584 83.7348632,140.41345 81.6837486,139.332252 L77.4768235,137.114546 C77.1383731,136.648354 76.3534843,136.533123 75.9616983,136.022813 C74.8666731,135.018656 73.7881094,134.297638 72.5554652,133.481143 L70.3410515,132.014744 C69.6924647,131.584767 69.22298,131.167301 68.5019622,131.025073 C67.1843762,130.76498 66.1018617,130.244794 65.0107872,129.489536 C64.1653198,128.904161 65.9306611,127.817038 65.9306611,127.323848 L65.9135411,127.306728 C65.8753502,127.296851 65.8661317,127.264587 65.8279408,127.255368 L65.8114792,127.238248 C65.7950176,127.174377 65.733122,127.170426 65.6745187,127.170426 C65.4657857,127.483197 64.7204047,127.716293 64.5169394,128.073839 C63.0051066,128.29179 60.062432,125.85284 58.7264089,124.81576 C58.5097744,124.647852 57.2751548,123.382943 57.3640474,123.263761 C57.789415,123.263761 59.2979555,124.499697 59.7312247,124.799298 C60.4239286,125.278001 61.6150895,125.498587 62.4559478,125.498587 C62.6501946,125.498587 63.9908268,125.286561 63.6826658,125.089022 C63.0854392,124.707113 61.9173244,124.716332 61.1956481,124.355494 C60.4792395,123.997289 58.6026178,123.378992 58.5222852,122.513112 C59.0589332,121.569533 56.8135717,122.592128 56.1886895,122.035726 C55.7429096,121.638672 53.8043922,119.78378 53.8043922,119.272812 C53.8043922,118.128402 54.7189984,118.946872 55.2865942,118.419443 C55.6303123,118.100088 58.0962591,117.557514 58.0962591,117.25923 C58.0962591,116.7746 57.7051316,116.455904 57.2277454,116.406519 C56.5014598,116.332771 56.2947022,116.089139 56.3249915,115.417506 C56.3677917,114.477879 57.9941972,114.600353 57.9941972,114.360014 L57.9770772,114.342893 C57.5411741,114.23293 56.7694546,114.237539 56.3934718,114.513436 C55.7060356,115.017819 56.353964,116.047656 55.8482638,116.423639 C54.7506047,117.240134 53.0774482,118.354255 51.744059,117.27635 C51.4490673,117.038644 51.33647,115.441211 51.590637,115.093542 C51.6505572,115.011234 53.0116018,115.551175 52.4591507,114.90588 C52.216836,114.623399 51.4023163,113.871433 52.135845,113.626485 C52.9674847,113.348613 53.3144952,113.329518 54.1283564,113.626485 C54.6610536,113.82139 54.28112,113.324908 54.28112,113.18268 C54.28112,112.653275 56.4863152,112.971313 56.3249915,112.32997 L56.2914099,112.32997 C56.2696806,112.243711 55.7541035,112.34709 55.6606016,112.34709 C55.3906314,112.34709 55.1061751,112.274 54.8605681,112.210129 C54.4049112,112.092923 53.7708106,111.882214 53.3961447,111.579321 C52.2859747,110.682493 51.4773812,113.097738 50.3816975,113.097738 C49.6244641,113.097738 49.3077431,112.344456 49.2234597,111.664921 C49.0779392,111.402853 48.7849228,110.895836 48.5254881,110.795091 C48.2732965,110.69698 47.762987,111.61817 47.4693122,111.119055 C47.2401668,110.730561 47.9085075,109.173953 48.1844039,108.833527 C48.3621891,108.614917 49.1892196,107.693726 49.1892196,107.537012 C48.9436126,107.456679 48.5887006,107.556107 48.3035858,107.604834 C47.8176395,107.688459 48.2884411,107.197903 48.4741279,107.110327 C48.9067386,106.90752 50.0656349,106.983902 50.3474574,106.598701 C50.6305968,106.210207 50.045881,106.069955 49.7686677,106.069955 C49.2998415,106.069955 48.7928244,105.747966 48.3378259,105.899412 C47.7471839,106.094976 47.4014904,107.2249 47.3672503,107.792496 C47.2954778,108.982998 45.5057732,107.010899 45.3576189,106.837723 C44.8644295,106.259592 44.8354571,105.888877 44.028839,105.541208 C44.028839,106.51771 45.2865048,107.063576 45.0507747,108.014398 C44.56417,108.014398 44.1967472,108.014398 43.892537,107.537012 C43.5567204,107.008924 42.8995736,106.964148 42.5472955,106.564461 C41.8894901,105.818421 41.247488,104.996659 41.3041159,103.869369 C41.3409898,103.133206 42.3616087,102.982418 42.8198995,102.777636 C43.2959688,102.56561 45.272677,102.220575 45.272677,101.686561 C45.272677,101.537748 45.0125838,100.979371 44.8802326,100.935912 C44.8802326,100.620508 44.9269836,100.454575 44.863771,100.133904 C44.0881007,99.9383399 43.4513662,98.2500387 43.5014095,97.5415317 C43.5758159,96.4748204 44.673475,95.8196489 45.5275025,95.4772478 C45.5386964,95.4331307 45.5768873,95.3231673 45.5103825,95.3067057 C45.4939209,95.2369085 45.0501163,95.3916475 44.9144727,95.3580658 C44.9144727,95.3231673 44.9236912,95.3323857 44.8973527,95.3238257 C44.8973527,94.9853753 45.6170536,93.7843374 45.8343466,93.4814441 C46.5724845,92.4555575 46.6409648,92.8697312 46.5323182,91.5541206 C46.3802131,89.6959358 49.1622226,88.6404184 49.8536095,87.255669 C50.7194894,86.6775378 50.9894596,85.7504208 51.8118808,85.2085052 L54.4516621,83.4688439 C54.863202,83.1975568 55.272108,82.4969513 55.6606016,82.2915106 C56.162351,82.0274666 56.9742368,83.0645471 57.2277454,81.5922221 C57.4213337,80.4708583 58.12589,79.7379881 58.8969511,78.9656101 C59.5336855,78.3275587 59.8846467,79.2388726 60.4298547,79.2388726 C61.2931008,79.2388726 62.869463,77.094256 63.6313056,76.5431218 C64.3865636,75.9979138 65.2675881,76.0749541 66.151905,75.4178072 C66.7418885,74.9786119 67.8303291,73.3706434 66.1854866,73.3706434 C66.1854866,74.3570221 67.2008378,74.6796694 65.5724568,75.3157454 C64.2739663,75.822104 62.8536599,76.1631882 61.4511321,76.2876379 C60.8591731,76.2876379 60.2217802,76.2527393 59.6462828,76.168456 C59.2808354,76.1144619 59.0451054,76.0644187 58.6921688,76.1342158 C58.1515701,76.7544887 58.0007819,77.4537772 57.1935053,77.8567571 C57.0552279,78.0990718 56.2598036,78.6074058 55.9845658,78.5902857 C55.4558194,78.8543297 54.6913429,78.8444527 54.2646584,79.2724542 C53.8787986,79.6596309 53.3197629,80.2871469 52.8680567,80.5860894 C52.4690277,80.8501334 50.5285349,83.0645471 50.3474574,82.3771109 C50.2737094,82.0979223 50.2572478,81.0318694 49.9214313,81.1148359 L49.9043113,81.1319559 C49.8970682,81.1635622 49.9016774,81.1582945 49.8707296,81.1655376 C49.7634,81.9260632 49.2715276,82.2434428 49.0022159,82.9058573 C48.6045038,83.8817006 47.9519662,83.8402174 47.0097045,83.6051459 C45.090941,83.1277596 43.8773923,83.4155083 43.6712931,85.6351897 C43.6712931,86.6070822 42.6506743,87.5401254 42.3774118,88.364522 C42.0830785,89.2514728 41.955995,90.1838575 41.5767199,91.0418358 C41.4720241,91.2788827 40.9827855,91.2578119 40.9636901,91.3157567 C40.9413023,91.3203659 40.9340592,91.3269506 40.9129884,91.3322183 C40.8247542,91.6812041 41.1335737,92.1039378 41.1335737,92.4753114 C41.1006505,92.4858468 41.001881,92.6089796 40.94657,92.5260131 C39.992456,92.5260131 40.4356021,92.1816366 40.4356021,93.0718796 C40.4356021,93.5525582 39.883151,93.7066387 39.5157282,93.9423687 C38.547128,94.564617 37.1314309,95.3751859 35.9567315,95.3751859 C35.4470805,95.3751859 33.9273461,95.4950263 33.5724342,95.1361635 C33.5408279,95.0077631 33.5592649,94.8655349 33.5724342,94.7265991 C33.6626437,94.5751524 33.3413134,93.7250757 33.5553141,93.6184045 C33.6132589,93.2062062 34.2361657,93.4294254 34.2361657,92.7479154 C33.8312104,92.4786037 33.6935915,90.6125174 33.2998302,90.5137478 C33.2998302,89.7630991 31.4607408,89.8994011 30.9833546,89.8994011 L30.966893,89.8822811 C30.966893,89.8105085 31.003767,89.8045823 31.0175947,89.7630991 C32.1132784,89.7630991 33.4427168,88.9887457 34.2190456,88.2111 C35.1303595,87.2978107 35.1698673,86.1270621 35.8882513,85.2769854 C36.1977293,84.911538 37.3223854,84.6777834 37.3869148,84.2194926 C37.4593459,84.2010556 37.956486,83.148172 36.3992192,84.1852524 C36.1055443,84.3808162 35.7163922,84.1971048 35.5135854,84.4920966 C35.2923416,84.8140854 34.2302395,85.984834 34.1854639,86.1639361 C33.5658495,86.3397459 33.2208145,87.6125564 32.4991382,87.8528957 C31.7254433,88.1096966 31.4001622,87.6790613 30.966893,87.1871888 C30.7489415,86.9409234 29.893597,86.8889047 29.893597,86.6077407 C29.8336768,86.5649405 29.5860945,86.0770189 29.5531713,86.010514 C29.5057619,86.0039294 29.4853495,85.9822001 29.4339893,85.9762739 C29.430697,85.9617877 29.0053294,85.7589809 28.9401415,85.6694298 L28.5312355,85.1064433 C28.3527918,84.8608363 28.2559976,84.1582554 28.3442318,83.8441682 C28.6069588,82.9071743 29.4333309,82.1848395 29.9449572,81.302498 C30.6172487,79.957915 29.0369357,77.6322209 29.7059349,76.2876379 C29.8659416,75.9676245 31.0373486,76.3027826 31.4093807,76.1170958 C31.4778609,75.7687684 31.9223239,75.0148274 32.2950144,75.4342688 C32.6927266,75.8826827 32.8705118,76.495054 33.4018921,76.321878 C33.4018921,75.9656491 33.1865744,75.7430884 33.1292881,75.4342688 C33.1148018,75.3552532 33.46708,74.4972749 33.521074,74.4794964 C33.521074,73.8671251 32.7664745,73.2521199 33.0785863,72.7734167 C33.3373626,72.3763631 34.5364251,71.9654817 34.3724677,71.3748397 C34.3112305,71.1535958 33.8911306,70.3002268 34.2532857,70.2495251 C34.3178152,70.3456608 35.9066883,70.5221291 35.9738516,70.7269113 C36.4617732,70.7269113 37.0122489,70.6821358 37.0122489,70.1468047 C36.4565055,70.0091858 35.1086302,69.5232395 34.8327338,68.9701299 C33.4078182,68.9701299 32.8099331,71.1996883 31.8011666,71.8186442 C30.4065403,72.3783385 30.0812592,72.6884749 28.5312355,72.6884749 L28.5141154,72.722715 C28.5141154,73.0769685 29.148216,74.7949005 28.6675375,74.9568826 C28.6675375,75.4566566 27.0556182,74.9983658 26.8620298,74.8548207 C26.4570746,74.5539028 25.7163028,73.804571 25.1934826,73.9336299 C25.1934826,74.6171153 25.6702104,75.2821637 25.6702104,75.9465537 C25.1164423,76.1296066 24.0095647,75.904412 23.8482411,75.2643852 C23.5723448,75.194588 23.8212441,74.9693934 23.3879749,75.0760645 L23.3708549,75.5027491 L23.0811308,75.8951935 C22.5642367,75.8951935 20.4927097,77.3885893 20.4927097,75.6054694 C19.4450938,75.3480101 18.9927292,72.1445838 19.8118581,71.5967419 C19.6590945,70.514886 18.8195532,71.2787039 18.5001983,71.3577196 C18.0820738,73.049313 18.3889179,74.2668126 18.4830782,75.9294336 C18.5456323,77.0284096 20.0680006,79.6780679 18.2104742,79.8183207 C16.906716,79.9170902 16.424062,79.5825906 15.3323291,79.3066943 C15.2263164,78.876059 14.1385342,78.2110106 14.0720294,78.0101791 L13.3911778,77.9252373 C12.560855,78.130678 12.3876791,75.5541093 11.2794845,75.5541093 C11.1563518,75.9307505 11.4836083,76.5174418 11.4836083,76.9184462 C11.3236016,76.9184462 9.7399962,75.9188982 9.54245707,75.7417714 C8.79246682,75.068163 7.98914102,75.0286552 7.73694939,73.96787 C7.28656016,72.0708359 7.60393971,70.3561962 8.60546311,68.7311076 C8.84251007,68.3459063 10.7138641,66.4626999 9.40615507,66.4626999 C9.28960698,66.6951376 8.59887847,67.0651942 8.38421928,67.2982904 C8.06815667,67.64135 7.6204013,68.0838377 7.37940356,68.4920852 C6.99881149,69.1380382 6.46413891,70.2633528 6.39170789,71.0166354 C5.86098609,72.2874704 5.67859162,73.6215181 5.47183399,74.9568826 C5.32236272,75.9221905 5.43825234,76.8493075 5.43825234,77.7889353 C4.57632326,78.0740501 3.75916971,77.9423574 2.88341288,77.6526333 C1.91547113,77.3319615 0.27721325,76.7584395 0,75.5712293 L0,0 L462.958639,0 L462.958639,354.637397 Z" id="Stroke-1"></path>
                        <path d="M390.415437,130.705408 C389.789238,130.705408 389.710881,130.812079 389.257199,131.148554 C388.656022,131.595651 387.630794,131.290124 386.872902,131.592359 C385.55334,132.119788 386.97233,132.53067 387.52083,132.923114 C387.52083,133.530876 387.201475,133.509147 386.941382,134.014189 C386.825492,134.238725 386.346131,134.937355 386.498894,135.140162 C387.301562,135.140162 388.428852,134.22358 389.222959,134.731256 C389.612769,134.979497 389.776069,135.429886 389.938709,135.85657 C390.057233,136.168024 390.334446,136.488037 390.688041,136.300375 C391.145015,136.057402 391.301071,135.894761 391.846279,135.82233 C392.326957,135.758459 393.378524,135.810478 393.378524,135.10658 C393.378524,134.797102 391.781091,134.893238 391.437373,134.697016 C391.437373,134.195266 392.360539,133.168721 391.539435,133.093656 C390.731499,133.019908 390.219873,132.648535 390.551739,131.762901 L390.415437,130.705408 Z M400.437914,173.923678 C399.868343,174.167968 399.421246,173.757087 399.007072,173.446292 C398.606068,173.146033 395.712778,172.06286 395.328235,172.201137 C395.206419,172.244596 395.479682,172.489544 395.515239,172.525101 C395.820108,172.830628 396.030816,173.016315 396.196749,173.412052 C396.73208,174.69013 398.448695,174.708567 399.41532,175.475677 C399.928263,175.883267 400.165968,176.038664 400.692739,175.509918 C400.828383,175.373616 400.995633,175.275504 401.135227,175.151713 C401.348569,174.962734 400.549194,174.058005 400.437256,173.923678 L400.437914,173.923678 Z M257.37744,244.807304 C256.91454,244.20481 256.518145,243.681331 255.708234,243.681331 C253.855317,243.681331 251.621149,243.963153 254.107509,245.830557 C256.017054,247.265349 261.120806,248.775207 262.077554,245.660015 C262.606959,243.934839 263.833677,243.950643 265.313245,243.681331 C265.888084,243.576635 268.143323,242.696269 267.424939,241.736887 C266.915288,241.736887 266.731576,241.866605 266.266701,242.009491 C265.315879,242.301849 264.783182,241.58149 263.781,242.214932 C263.262789,242.54153 263.026401,243.435065 262.179616,243.271766 C261.425017,243.126246 260.11204,243.297447 260.374767,244.39774 C260.613789,245.401897 259.130929,245.830557 258.365135,245.489472 L257.37744,244.807304 Z M440.458684,99.4731543 C440.355964,99.0267159 440.240074,98.8304937 440.049778,98.4499016 C439.86014,98.069968 439.493376,97.844115 439.300446,97.4951292 C439.203652,97.3186609 439.95891,96.9788936 440.084018,96.8465423 C440.52453,96.379033 440.976895,94.8230831 441.173776,94.1856902 C441.307444,93.7530795 440.760919,93.5127402 440.968993,93.0939573 C441.044058,92.9458029 441.479961,92.9727999 441.651162,92.9234151 C441.865163,92.8615195 441.98632,92.6290818 442.127231,92.5823309 C442.127231,92.0384398 441.641943,90.6582997 442.161471,90.398865 C442.161471,89.253138 443.013523,88.7592902 443.013523,87.4989905 C442.574328,87.4989905 442.295798,88.1436266 442.195711,88.5222433 C442.11472,88.8290874 442.104185,89.0977406 441.990929,89.3756123 C441.90928,89.5784192 441.614946,89.8260015 441.582682,89.9557189 C441.28769,89.9557189 441.189579,89.7845183 440.935412,89.7845183 C440.844544,90.1486488 440.776063,91.1310767 440.18608,90.9789716 C438.84874,90.6352535 438.584696,91.8125868 438.584696,92.9234151 C438.584696,93.3329796 438.9429,93.8307782 438.823718,94.2199303 C438.605767,94.9284373 437.392877,94.9297543 437.392877,95.7890495 C437.392877,96.4791195 437.430409,96.743822 437.869604,97.2903469 C438.643299,98.251704 439.376169,99.9472483 440.288142,100.633368 C440.416542,100.504967 440.390204,100.365373 440.390204,100.190221 L440.458684,99.4731543 Z M393.607011,111.775892 C393.383792,111.534235 391.263538,109.512752 392.176169,109.18352 C392.563346,109.044584 393.218517,109.398179 393.743313,109.251341 C394.313542,109.09331 394.691501,108.808195 395.310457,108.808195 C395.624544,108.808195 395.961677,109.161132 396.263912,108.944497 C397.946287,107.737533 399.670145,111.138499 399.670145,107.852764 C399.670145,107.191008 401.987279,107.595305 402.39421,106.011041 C402.683934,104.883751 404.983289,103.988899 404.983289,102.428998 C404.983289,101.461715 405.3731,101.387309 405.493599,100.654438 C405.602245,100.000584 405.539033,99.1814549 405.698381,98.5394527 C406.076998,99.6805704 405.800443,100.466118 405.800443,101.71259 C405.800443,102.104376 405.764886,102.895849 405.562079,103.213229 C405.213093,103.761729 405.975594,103.774898 406.209349,103.963877 C406.263343,104.007994 404.307047,104.990422 403.790812,105.157672 C402.845916,105.465175 403.790153,106.19146 402.871596,106.863752 C401.565204,107.8205 402.32112,110.5123 400.555121,111.298505 C399.343547,111.838446 398.101685,110.662429 398.647551,112.799803 C398.766074,113.262044 398.998512,114.47691 398.818752,114.880548 C398.685083,115.179491 397.967358,113.186321 397.864638,112.901865 C397.646686,112.301346 397.863321,111.731116 397.35367,111.298505 C396.277081,110.385216 396.435771,112.088003 396.468036,112.629261 C396.516104,113.427977 394.904843,112.424478 394.355684,112.424478 L393.607011,111.775892 Z M279.287164,154.965189 C280.03452,154.965189 280.689033,155.135731 281.365275,155.135731 L282.081025,154.316602 C282.152139,154.302775 282.154115,154.306725 282.183087,154.248781 C282.90608,154.068362 281.892046,151.90465 281.774181,151.519448 C281.604956,150.966997 281.255312,150.450103 280.990609,149.950329 C280.762122,149.518377 280.143825,148.961975 280.037154,148.585334 C278.301443,147.934113 277.994599,144.513394 277.141889,143.229389 C276.583511,143.229389 274.734545,144.786656 274.587049,145.378615 C274.399387,146.131898 275.327821,147.515988 275.370621,148.414792 C275.457538,150.251247 274.996614,151.198776 276.119953,152.713243 C276.903525,153.770077 277.121476,154.830204 278.299468,155.272033 L279.287164,154.965189 Z M383.487081,255.007566 C382.226781,257.352356 377.905942,254.013286 379.229454,259.169716 C379.686428,260.952177 380.244805,262.902547 382.737091,261.933288 C385.00484,261.050947 384.831006,263.252191 386.824834,262.547635 C388.398562,261.990575 387.278515,260.086297 389.174891,260.534053 C391.046245,260.976541 390.257406,260.164655 390.196827,259.101236 C390.107934,257.544627 392.893894,257.988432 392.172218,256.542445 C391.760678,255.71739 391.499268,255.379598 390.537253,255.860277 C390.275184,255.99197 388.706065,256.749862 388.595443,256.304082 C388.278722,256.198069 388.863438,255.224859 388.902287,255.076047 C389.139334,254.180536 387.700591,253.302145 389.583139,253.302145 C391.208227,253.302145 394.840972,251.200329 395.612691,249.787924 C395.869492,249.317122 395.542236,248.460461 395.986699,248.150325 C396.882868,247.525442 396.473962,246.132133 397.485362,245.864797 C399.732041,245.270862 401.932627,244.955458 404.025225,243.817633 C405.452774,243.041963 406.657104,240.923026 408.044488,240.576674 C408.044488,240.170402 403.040163,241.556468 401.947771,241.669066 C400.917276,241.775078 399.954602,241.287815 398.984684,241.464283 C397.252925,241.778371 391.797552,245.461159 391.797552,247.229134 C391.797552,250.379883 384.402346,250.508283 384.099452,254.154197 L383.487081,255.007566 Z M449.623183,311.202182 C449.271563,311.472811 448.318108,311.398404 448.958793,310.963818 C449.174111,310.817639 449.409182,310.697799 449.554703,310.485773 C449.673226,310.315231 449.676518,310.0716 449.793725,309.905667 C449.978095,309.644257 450.852535,309.156335 450.867021,309.34268 C450.880849,309.536269 450.616146,310.02419 450.917723,310.041969 C451.048098,310.04987 451.229176,309.882621 451.34309,309.820725 C451.443177,309.766073 452.100324,309.594214 452.143782,309.786485 C452.244527,310.231606 452.673187,310.265847 452.893772,310.622075 C453.114358,310.978963 452.634996,312.203705 452.467088,312.583639 C452.38478,312.769984 452.324201,313.180207 452.195142,313.317168 C451.685491,313.859742 451.869861,313.245395 451.803356,312.908262 C451.039538,312.526353 451.156086,313.60755 450.71294,313.60755 C450.564128,312.99913 451.104726,312.51911 451.104726,311.935711 C451.104726,310.901264 450.430459,311.711175 450.066329,311.202182 L449.623183,311.202182 Z M346.1456,330.732876 C346.125846,330.396401 346.016541,330.086265 345.941476,329.777445 C345.685992,329.777445 345.383099,330.063877 345.175025,330.22125 C344.491539,330.736827 345.159221,331.492085 345.192145,332.148573 C345.203338,332.375743 344.986045,335.012891 345.583272,333.734813 C346.208813,332.397473 346.496561,334.026512 346.622328,334.536821 C346.77575,334.574354 346.737559,334.843666 346.963412,334.843666 C347.066132,334.428833 347.38022,333.817779 347.899748,333.854653 C348.267829,333.880333 348.539774,334.497972 348.938803,334.622422 C349.682209,334.852884 350.75748,333.776296 351.084737,333.223186 C351.271082,332.907782 351.381046,332.810988 351.663527,332.643738 C351.827484,332.546285 352.350304,332.029391 352.225855,331.807489 C352.139596,331.654725 351.578585,332.122235 351.475864,332.165693 C350.737727,332.481756 350.42759,332.828766 349.568953,332.6602 C349.246306,332.596987 348.461417,332.61279 348.308654,332.285534 C348.179595,332.010296 349.410922,330.381257 348.547018,330.630814 C348.210543,330.727608 347.916868,330.987702 347.559322,331.03972 C347.130003,331.102933 346.862009,331.00548 346.451786,330.971899 L346.1456,330.732876 Z M383.357364,345.010346 C383.671451,344.650825 384.016486,344.02726 384.481361,343.850133 C384.698654,343.767167 385.185918,343.798773 385.435475,343.798773 C385.51054,343.495221 385.366995,343.100801 385.366995,342.7584 C385.366995,342.596418 385.376872,342.437728 385.383457,342.280355 C385.397284,342.005776 385.497371,341.985364 385.196453,342.007751 C384.827055,342.036065 384.530088,342.049235 384.158056,341.97417 C383.981587,341.937954 383.016938,341.623867 383.016938,341.956391 C383.215794,342.030798 383.394238,342.206608 383.596386,342.314596 C383.818288,342.435094 384.428026,342.632634 384.515601,342.860462 C384.551158,342.953305 384.194271,343.223934 384.106695,343.287147 C383.856479,343.468224 383.733346,343.749388 383.562146,343.986435 C383.33761,344.29723 383.238182,344.606708 383.238182,345.010346 L383.357364,345.010346 Z M399.280993,45.2934378 C399.146667,44.8549009 398.492154,43.3595297 398.872746,43.00791 C399.231608,42.6760443 399.71097,44.1463939 400.251569,42.9736699 C400.773731,41.8397953 402.033372,43.2186184 402.465982,43.6222567 C403.404952,44.4973551 404.247785,42.7596692 405.224287,42.9565498 C405.45014,43.352945 405.367832,44.1174215 405.48043,44.5770292 C405.654264,45.2908039 407.983909,44.4249241 407.268159,45.8564243 C407.095641,46.2014593 406.544507,46.3845123 406.451005,46.6920148 C406.344334,47.0403422 406.244248,48.7128402 405.548251,47.8008678 C405.041893,47.1377948 404.781141,47.2852907 404.22013,47.7495077 C403.264041,48.5409811 402.423182,48.1031027 401.358446,47.8864681 C400.798752,47.7718954 399.594422,45.8590582 399.280993,45.2934378 Z M332.319178,59.5676156 C331.164891,60.1892054 330.517621,60.249784 329.185549,60.249784 C328.544863,60.249784 328.021385,60.4934156 327.346459,60.4203261 C326.639928,60.3439443 326.020313,60.0068109 325.438231,60.5908683 C325.438231,61.5357638 328.105668,63.3755116 328.912945,63.9338889 C330.108056,64.7622363 331.839158,64.4790969 333.067851,65.094102 C334.130612,65.6254823 334.70545,65.1711423 334.771297,64.0708493 C334.840436,62.9284147 337.619811,62.9889933 336.985052,61.7168413 C336.290373,60.3228735 334.909574,60.1793284 333.510997,59.6696774 L332.319178,59.5676156 Z M161.109377,76.5599318 C159.691046,75.3773309 158.432722,73.720636 158.04357,71.8519158 C157.929655,71.3040739 157.351524,69.9180077 157.566842,69.4294276 C158.031717,68.375227 161.751379,70.2380211 162.744343,70.4190986 C163.860439,70.6232224 166.226957,70.6982873 167.171853,69.9759525 C168.445322,69.0014261 168.046293,69.0251308 169.215725,69.8054104 C170.225808,70.4783604 172.706241,69.3135379 174.018559,69.566388 C174.551257,69.6691084 177.636159,69.6618653 177.730978,69.8054104 C177.804726,69.8152873 177.804726,69.8238474 177.86728,69.838992 C177.924567,70.2426303 175.833286,71.7643401 175.414503,72.1245198 C173.699204,73.6040879 174.006049,74.8426583 173.030205,76.5941719 C172.328283,77.8551301 170.832912,77.5963538 170.101358,78.5721971 L170.16918,78.8112195 C170.253463,78.8322903 170.335113,78.9771523 170.407544,79.0502418 C170.407544,79.4334677 171.422237,80.619361 170.373962,80.619361 C169.693111,80.619361 169.138684,79.8634446 168.499974,79.6981702 C167.54191,79.4512463 165.908261,79.5901821 165.127981,79.0502418 C164.218643,78.4207504 163.533182,77.5831845 162.369018,77.5831845 L161.109377,76.5599318 Z M173.370631,90.2059351 C172.601545,90.8248911 171.397215,90.8808605 170.612326,91.5017918 C170.020367,91.9706181 169.261159,92.6093279 168.568455,92.8667873 L163.527256,94.7427506 C161.020484,95.6757937 154.684087,95.3959466 153.956485,98.4953356 C153.484366,100.506284 148.847465,99.407308 148.847465,98.3247935 C148.910019,98.3096488 148.900142,98.3195258 148.915286,98.2569717 C149.298512,98.2023193 150.478479,97.9797585 150.550252,97.4720829 C151.148795,97.3226116 150.74384,95.8009019 150.37971,95.5276394 C150.321106,95.5631964 150.319131,95.5618795 150.244066,95.5618795 C149.980681,96.6233231 147.971049,96.6575632 147.280321,96.7556743 C147.171674,96.8643209 147.132825,96.9262164 146.974135,96.9262164 C146.974135,96.379033 147.140726,95.0930533 147.654987,94.8112308 C148.757913,94.208078 148.927139,94.0454374 148.608442,92.7640669 L148.507039,92.7640669 C148.168588,93.7820519 146.394029,93.7451779 145.577533,94.1290623 C143.764124,94.9811144 144.011707,93.099225 142.88705,93.3441735 C142.376083,93.4554539 140.816182,94.9725544 140.536335,94.1975426 C140.344063,93.66287 140.369085,91.8481438 139.752763,91.6729924 C139.68955,91.2258955 139.017259,91.2509171 139.480159,90.6490813 C139.727741,90.3277509 139.722474,89.8273185 139.514399,89.4895265 C138.703172,88.1679897 140.18669,88.4043782 140.672637,87.6129048 C141.130269,86.8668653 139.853508,86.7878497 139.446577,86.691714 C137.804369,86.3045373 139.731692,85.5940548 139.446577,84.8493323 C139.285254,84.4285739 139.903551,83.9656739 140.195909,83.8603197 C141.024256,83.5607187 143.515225,83.1030864 143.295298,82.4617426 C143.112904,81.9303624 143.407237,80.9354236 143.022694,80.5515392 C142.070555,79.5987421 141.830875,80.7958293 141.830875,78.7769793 C141.830875,77.5081196 141.497692,77.1262107 142.580206,76.2530877 C142.928534,75.9712652 143.623871,74.2902072 143.704204,73.9669014 L143.772026,73.9669014 C143.941909,73.2860499 144.822934,72.9159933 143.295298,72.5340843 C143.295298,71.1941105 142.524237,70.6377086 141.456209,69.8732321 C140.452051,68.8690749 137.935403,69.2496669 136.653374,68.0650906 C135.526742,67.0240594 133.549376,67.4724732 132.429987,66.2569491 C131.755062,65.5247374 130.830579,65.6162638 130.181992,65.1316345 C130.181992,64.7161438 130.522418,64.8689074 130.624479,64.5851095 C130.747612,64.2433668 130.590898,64.0609724 130.590898,63.7666391 C130.108902,63.4446503 127.480315,61.8505095 127.423029,61.4468712 C127.176763,61.385634 126.964079,60.86874 126.673697,60.6962225 C126.307591,60.2201532 125.402862,57.1866105 126.026427,56.9093973 C127.06219,56.4497896 128.105856,56.6927627 129.194296,55.9203847 C129.851443,55.4535339 130.538221,55.9302616 131.067626,56.2614689 C131.470605,56.5130021 132.109315,56.3885524 132.599871,56.6025532 C133.09306,56.8172124 134.839965,57.2307276 134.916346,56.295709 C134.967048,55.6747777 133.621807,55.1644683 133.621807,54.2485452 C134.718149,54.2485452 135.838196,54.3644348 135.631438,53.0205102 C135.537936,52.4107728 136.115409,51.1919563 136.585552,52.1335595 C137.114298,53.1943446 137.591685,54.0062305 137.880092,55.1354959 C137.967009,55.477897 138.118456,56.1600655 138.254099,56.4662512 C138.383158,56.7572922 139.105493,57.3031586 139.105493,57.523744 C139.188459,57.5369133 139.233893,57.5579841 139.344515,57.5579841 C139.478842,57.0167269 138.814452,54.9649537 139.787003,54.9649537 C140.795769,54.9649537 142.924583,56.0639298 142.78433,54.214305 C142.716508,53.3207697 142.19698,51.3921293 142.88705,50.7007423 C144.246778,50.9647863 144.948701,52.3390002 146.599469,52.4404036 C147.447571,52.4930807 152.251722,50.006063 150.005702,49.6432495 C149.451276,49.5536984 148.873145,49.8625179 148.336497,49.6432495 C147.242788,49.1954941 145.16731,49.1862756 144.419296,48.6878186 C144.419296,46.5813929 146.245874,47.0093944 147.654987,46.2317487 C148.438559,45.7997964 145.994999,44.1503447 147.791289,44.1503447 C150.137395,44.1503447 151.958706,43.4339361 154.229089,43.4339361 C154.761786,43.4339361 156.168265,44.3320807 156.23872,43.3318742 C156.296665,42.5028683 158.931179,42.7043582 159.883317,42.0695991 C160.761708,41.4842248 162.34268,41.2754918 163.425194,40.6710221 C164.940978,39.8242376 165.046332,42.6786781 165.673848,43.6387183 C166.583845,45.0340031 167.985056,47.5348485 168.295851,49.097383 C168.436762,49.2126142 168.695538,49.3653778 168.738997,49.5405291 C169.399436,50.0139646 171.141073,52.2099413 171.531542,52.95203 C172.110331,54.052323 172.458,55.3712259 173.064445,56.3977709 C173.747931,57.5533749 174.699411,57.7502555 174.699411,59.3997073 C174.699411,60.5289727 175.076711,62.2166153 175.755587,63.1187107 C176.942797,64.6963899 178.51455,65.2080163 178.51455,67.3144419 C178.51455,69.5314894 178.653486,71.1453842 177.799458,73.284733 C177.231863,74.7050393 176.921726,75.5524822 177.25425,77.0715582 C177.475494,78.0849339 177.725052,79.6086191 177.322072,80.619361 C177.451131,81.9586763 175.207745,82.6105555 176.5385,84.4061862 C176.837443,84.8078491 177.534097,84.7472704 178.003582,84.7472704 C178.003582,85.2075366 177.969342,85.6750459 177.969342,86.1458475 C177.969342,87.1737094 176.483848,87.0729645 175.755587,87.7498652 C175.078028,88.3793566 175.107,89.3097659 174.222683,89.8648509 L173.371289,90.2059351 L173.370631,90.2059351 Z" id="Stroke-3"></path>
                        <path d="M333.724093,229.325627 C335.431489,229.655517 337.93431,229.391473 339.344081,228.268134 C340.456885,227.381184 341.56903,226.493574 342.681834,225.607282 C343.53652,224.925772 344.382646,224.048698 345.475037,223.731319 C346.156547,223.532463 346.747189,223.594358 347.451087,223.594358 C349.796535,223.594358 351.74032,221.25352 350.481996,218.716459 C349.843944,217.431137 349.163093,216.261706 350.447756,215.304299 C351.797606,214.298167 352.34874,216.684439 353.786167,217.180921 C355.020786,217.607606 356.152027,217.061739 356.578712,215.850166 C357.231908,213.997249 354.647438,212.422203 355.659496,210.255199 C356.54513,208.356848 358.540275,210.204497 359.031489,211.381172 C359.123016,211.601758 360.811975,213.518546 361.381547,213.871482 C364.771977,215.971323 363.050752,209.998398 363.698022,209.675093 C363.77177,209.638877 365.838688,210.810943 366.354265,210.869546 C367.758768,211.030211 367.673168,210.801724 368.465958,210.051075 C368.758975,209.773204 369.08228,209.065355 369.181708,208.549778 C369.311426,207.872877 369.185659,206.473642 369.964622,206.23001 C370.740951,205.987037 371.083352,206.703445 371.566006,206.912179 C371.68848,206.965514 372.329165,207.751061 372.519461,207.90185 C373.725767,208.855305 374.361185,207.385614 375.277766,206.775877 C375.609632,206.555291 376.117966,206.576362 376.572306,206.707396 C377.078006,206.852258 378.579962,208.27454 378.990843,208.68608 C380.149081,209.844318 379.322051,211.944817 381.545683,212.301705 C382.469508,212.450517 383.287978,212.295778 384.201926,212.575625 C384.895947,212.787651 386.055501,213.727279 386.518401,214.280388 C387.429715,215.370804 387.440251,215.96408 388.936939,216.635055 C389.771212,217.009062 391.900026,216.648224 392.78566,216.191909 C393.960359,215.585463 395.119914,215.167997 396.63438,215.167997 C399.28338,215.167997 401.566274,213.155074 403.992055,212.268781 C406.010246,211.529985 413.840697,206.664596 415.708759,207.764889 C416.998031,208.524756 418.731108,208.985681 420.23899,209.164125 C420.994248,209.253017 422.12483,209.35903 422.826752,209.129226 C423.617567,208.872425 427.82976,206.294539 428.209035,206.025228 C430.476785,204.413308 430.87318,201.061728 433.897504,200.464501 C436.055948,200.037817 438.308553,199.5308 440.334646,200.600803 C443.355019,202.196919 445.215179,202.173873 448.645117,201.624714 C450.284034,201.361987 456.378116,198.353466 457.467215,198.82756 C458.069051,199.088312 458.670887,199.35038 459.272723,199.611791 C459.995716,199.925878 460.723977,199.418202 461.418656,199.065924 L462.896249,198.315275" id="Stroke-5"></path>
                        <path d="M321.99577,266.569843 C322.731274,265.480085 324.156189,263.9136 325.332864,263.311764 C329.89536,260.980144 328.267637,258.56424 329.147345,258.330485 C329.967132,258.113851 330.46954,258.726222 331.259697,258.84277 C332.439664,259.016605 333.181094,258.720954 333.98442,258.023641 C334.864127,257.260482 337.658648,254.305955 338.753014,254.032692 C340.946357,253.483534 345.485807,253.765356 347.506632,254.816923 C350.345928,256.294515 349.32926,259.486748 352.751954,260.105045 C354.155141,260.357895 355.207366,260.10307 356.362311,258.944832 C357.526475,257.778693 357.880729,257.68124 359.189096,258.126362 C360.438861,258.551071 362.546603,256.72976 363.515862,256.420282 C366.428906,255.49119 368.86588,255.918533 371.826333,256.011376 C373.054368,256.049567 374.083547,255.826348 375.300388,256.113438 C376.164292,256.317562 376.935354,256.983269 377.820987,257.068869 C378.216724,257.10706 378.612461,257.145251 379.008856,257.183442" id="Stroke-7"></path>
                        <path d="M371.041483,206.051243 C372.432817,203.568176 370.350755,202.608136 372.50459,200.367384 C372.563193,200.305488 372.671181,200.147457 372.673815,200.059881 C372.725833,198.724517 372.509199,197.257459 373.116961,196.103172 C373.907776,194.601875 375.823247,194.461622 377.068402,193.271778 C378.622377,191.785625 379.886627,190.355442 381.155487,188.563104 C383.689255,184.986328 389.455423,186.589688 392.702307,183.514003 C395.260439,181.091515 397.538065,178.672319 400.877135,181.331196 C408.286828,187.233007 407.411071,175.297692 412.593181,175.156781 C415.090734,175.088301 417.589604,175.019821 420.087158,174.951999 C424.043208,174.844011 422.31935,173.680505 422.982423,171.301476 C423.181937,170.586384 424.026088,169.858123 424.685869,169.527574" id="Stroke-17"></path>
                        <path d="M325.194403,190.851935 C326.393466,189.465869 328.599319,187.364053 330.643849,187.84934 C331.503145,188.053464 333.237538,188.607891 333.811719,187.576078 C334.640066,186.088608 334.410921,185.454508 336.025474,186.075439 C337.627516,186.691103 337.725627,189.471795 340.487883,187.269892 C342.209107,185.896995 344.935147,185.108814 344.744851,182.596116 C344.614475,180.866332 344.814648,177.614838 345.357881,176.011479 C345.571882,175.380012 345.914941,174.762373 346.175693,174.135515 C346.634642,173.033247 346.4641,171.634012 346.992847,170.450752 C347.766542,168.720309 350.484022,169.017935 350.875808,166.971429 C351.121415,165.686767 350.929143,165.454329 352.068285,164.617421 C352.739918,164.123574 353.683497,163.614581 354.247801,163.014062 C354.606663,162.632153 354.570448,161.843314 354.894412,161.342223 C355.583165,160.279462 356.954087,160.484244 357.41567,159.329299 C357.438058,159.273329 357.461104,159.216043 357.483492,159.158757 C357.999069,157.868168 356.90536,154.521196 357.279368,152.984342 C357.787043,150.898329 359.242248,150.511152 361.128089,150.425552 C362.632678,150.357071 365.817668,146.98442 365.317894,145.444932 C365.091382,144.748277 363.938412,143.23842 364.227478,142.578639 C364.513251,141.928735 365.955286,141.1636 366.578193,140.736916 C368.1269,139.675472 369.314769,138.237387 369.200196,136.165202 C369.113279,134.590156 366.653258,133.472743 367.906315,132.037951 C368.064346,131.855556 368.224353,131.673162 368.383042,131.491426 C371.192707,128.27483 375.323909,129.21775 376.319506,124.975927 C376.524947,124.098853 377.36383,121.640808 377.988712,121.052799 C378.618862,120.458207 379.202261,120.815753 379.964103,120.677475 C381.056495,120.478619 381.617506,120.354828 382.313502,119.654222 C383.221524,118.738958 383.317659,116.901844 384.868342,116.651628 C386.608003,116.371122 387.269759,115.881225 388.854023,115.150989 C389.392646,114.902089 389.726487,115.026539 390.284206,115.116749 C390.922258,115.219469 391.531995,115.253051 392.191776,115.253051 C393.435614,115.253051 392.729741,113.340213 393.11165,112.899043 C393.384254,112.583638 393.657516,112.267576 393.930779,111.952172" id="Stroke-21"></path>
                        <path d="M303.145802,181.366884 C303.767392,181.223339 302.258193,179.95843 302.054069,179.717432 C300.600181,178.002134 298.279755,178.77122 297.6259,175.692243 C296.411693,169.973485 302.783647,174.018428 304.097282,169.994556 C304.740602,168.027725 303.888549,167.08678 303.824678,165.252959 C303.756857,163.277567 306.267579,164.738698 307.435694,164.093404 C308.201487,163.670012 307.558827,162.6033 307.912422,161.807218 C308.339106,160.846519 310.303304,161.26201 310.875509,160.511361 C311.944195,159.108175 310.025432,157.195337 309.956293,155.495842 C309.908884,154.338263 310.951232,153.57247 311.011811,152.493906 C311.040125,151.997424 310.785299,151.712968 310.535083,151.334351 C310.269722,150.93203 309.806822,150.441474 309.683689,150.003596 C309.507221,149.379372 309.674471,148.899352 309.887813,148.195454 C310.136712,147.37435 308.345032,146.522298 307.912422,145.841446 C307.460057,145.128989 307.900569,144.79844 308.354909,144.101785 C309.079878,142.991615 308.03753,142.130345 309.206303,141.201911 C309.685006,140.822635 311.418083,140.068036 310.296719,139.086925 C310.038601,138.860413 309.469688,138.140712 309.342605,137.619868 C309.136506,136.775717 309.446642,136.002681 310.092595,135.606944 C311.875057,134.514552 313.297338,134.465826 313.702294,132.024901 C314.125027,129.484548 314.019015,129.651797 316.359195,128.71612 C317.30014,128.340138 318.794852,127.846948 318.368826,126.464174 C318.110709,125.623975 317.342281,125.095228 318.301005,124.38277 C319.056921,123.821101 321.059309,124.242518 319.765428,122.711589 C318.845554,121.62249 319.654806,120.820481 320.344218,119.777475 C321.333889,118.282103 320.367264,117.241072 320.038032,115.581743 C319.704191,113.900027 320.997414,112.787223 321.877121,111.317532 C321.911361,111.260904 321.945602,111.202959 321.979842,111.146331 C322.67913,109.977558 323.286892,108.432144 323.069599,107.018422 C322.708103,104.67034 327.832268,105.016034 328.82589,103.232255 C330.053925,101.025085 327.611024,99.41119 329.370439,97.5688084 C329.909721,97.0045049 329.89721,96.375672 329.132075,95.7264267 C327.960668,94.7321464 329.478427,93.7464261 329.882066,93.0313345 C330.839472,91.3338149 330.036146,91.7150654 329.472501,90.5752646 C329.100469,89.8213236 329.772102,89.0667241 330.085531,88.6993013 C330.817743,87.841323 330.243562,86.8147779 329.882066,85.8672486 C329.426409,84.6774045 328.116724,83.4934866 327.395048,82.387926 C326.306607,80.7193788 327.385171,80.1662692 328.382743,78.805883 C328.816013,78.2145825 328.764652,77.7503656 328.451224,76.9977415 C328.102238,76.1601756 326.442251,74.4435605 327.360808,73.6540624 C329.594317,71.7359574 327.197509,71.2421096 328.14438,69.2193089 C328.489415,68.4824879 329.496206,68.708341 329.847825,67.9570338 C330.224467,67.1510741 330.24027,66.4030593 330.426615,65.5694442 C330.54448,65.0374054 330.66432,64.5047082 330.783502,63.9726695" id="Stroke-35"></path>
                        <path d="M311.333658,160.392895 C311.930885,159.669901 312.431317,159.710068 313.191843,159.268239 C313.661328,158.995635 314.006363,158.169262 314.248019,157.699119 C314.777424,156.671257 315.817797,156.226794 316.90492,155.959458 C317.695077,155.765211 318.685406,154.796611 319.289218,154.526641 C319.720511,154.333711 320.375683,154.043328 320.617997,153.57121 C320.756275,153.300581 319.979288,152.314861 319.902247,152.069913 C319.644788,151.246833 318.971838,150.562689 319.494,149.579603 C319.829816,148.94616 321.032171,148.934966 321.775577,148.761132 C323.322967,148.398977 324.189505,149.222057 324.909206,147.089293 C325.158105,146.350496 325.736236,145.721005 326.51059,145.690715 C327.451535,145.653841 327.122961,144.413954 327.804471,144.29148 C330.344824,143.835165 331.485284,143.889159 332.947732,141.562806 C333.705624,140.3565 333.171609,136.879812 334.071729,136.377404 C335.156878,135.771617 336.228857,136.648691 337.171118,135.285671 C337.797317,134.380283 337.305445,131.79252 337.749908,130.474934 C338.200956,129.140228 339.236719,126.450404 340.782134,125.972359 C346.845268,124.095079 340.589204,119.792677 342.228779,117.63094 C342.817445,116.853953 344.720406,117.856793 345.693615,116.883584 C347.464883,115.112316 347.800041,113.125072 349.09063,111.041035 C350.269938,109.136099 351.740288,110.056631 352.895233,107.167951 C354.460402,103.253383 358.55473,104.630231 361.523743,102.14058 C363.523497,100.463472 367.237891,96.3612431 368.657539,94.1237832 C369.866479,92.2175305 372.971136,91.3654784 374.296623,89.5033428 C375.85389,87.3152677 375.953318,83.6581599 378.033405,82.0982592" id="Stroke-39"></path>
                        <path d="M178.057263,130.340562 C178.603788,129.609668 179.150972,128.878114 179.697497,128.147219 C182.289869,124.681066 184.804542,122.915725 189.141184,122.915725 C193.175592,122.915725 199.509355,118.409857 203.272475,119.586532 C204.856081,120.081697 209.169018,119.585215 210.202807,117.819874 C210.57418,117.186431 211.357752,116.088114 211.833163,115.646285 C213.34763,114.240464 214.092352,113.810488 215.706247,112.792503 C216.044039,112.57916 216.487843,112.009589 216.793371,111.909503 C218.47377,111.355076 218.879384,108.19445 221.141207,107.62883 C223.345744,107.078354 226.788192,108.375528 227.935895,106.541706 C229.354884,104.273957 231.087302,99.932705 233.506498,97.9816769 C235.954666,96.006944 234.436907,91.9192009 236.903513,89.7607566 C237.974175,88.8244211 239.642064,87.526589 239.961419,87.1789201 C240.3295,86.7772572 241.354728,87.0524951 241.727418,86.9754548 C245.143528,86.2643139 247.66742,80.7246582 250.831339,80.7246582 C253.89122,80.7246582 256.393382,79.8153197 259.188561,78.8223563 C265.947033,76.4215974 263.948596,70.274838 268.496605,66.8646541 C270.325159,65.4930741 272.182685,64.1142509 274.271332,63.1278722 C278.019308,61.3566046 277.339773,59.9567106 279.027416,56.6057885 C279.496242,55.6734038 281.77321,52.2164689 282.424431,51.4421155 C284.062689,49.4924043 285.894535,45.7398192 287.927212,44.1041952 C289.28694,43.0104868 291.119445,41.725824 293.023064,41.5901805 C296.080311,41.3728874 299.95537,41.8423721 302.874999,42.7457844 C307.117481,44.0587612 309.152792,37.0434881 312.929741,35.6798096 C315.078966,34.9041393 317.933407,34.0527456 319.384003,32.0108494 C321.787395,28.6289795 324.239514,27.3337812 327.265814,24.6729291 C328.138278,23.9051603 328.998232,23.366537 329.846992,22.7028055 C330.820201,21.9416214 331.163261,20.2809757 331.884937,19.2379691 C332.617149,18.1811347 333.24664,16.7279052 333.787898,15.5011871 C334.092108,14.8104586 335.436032,14.0545422 335.962145,13.4632417 C336.805637,12.5130785 338.532788,11.7973284 338.951571,10.541638 C339.489535,8.92445093 340.928279,7.61344955 342.144461,6.39726695" id="Stroke-41"></path>
                        <path d="M296.451723,190.046461 C296.401022,189.771223 296.528105,189.34388 296.267353,189.245111 C294.546788,188.59389 291.7898,189.06535 291.0352,187.41063 C289.355459,183.726526 290.441266,183.27482 286.823007,182.315438 C284.385375,181.668826 282.666126,179.610469 280.640691,178.30671 C275.140543,174.764175 271.150911,179.527502 266.44092,179.257532 C264.471455,179.144276 262.500014,179.03102 260.52989,178.918423 C259.170163,178.840066 257.982952,179.926531 256.521163,180.14119 C252.937145,180.667961 249.430166,179.372763 246.126654,181.02419 C244.444279,181.865049 243.580374,184.217081 241.37057,184.217081 C236.555883,184.217081 235.443079,182.413549 230.771937,185.916576 C226.366814,189.218114 228.816958,191.972468 227.102977,195.971318" id="Stroke-45"></path>
                        <path d="M131.194796,243.671552 C130.513944,241.9793 136.870095,241.86802 138.518888,240.219227 C138.913308,239.824148 139.326823,238.831843 139.809477,238.384746 C140.339541,237.894849 142.124636,232.503348 143.070848,233.08543 C146.419795,235.145763 147.761086,229.891881 151.699358,229.891881 C156.570014,229.891881 160.983038,226.38161 164.404416,226.290742 C164.500552,226.289425 165.151773,225.660592 165.151773,225.611866 L165.151773,225.339921 C165.151773,225.251028 165.218936,225.106166 165.287416,225.000812 C165.347336,224.908627 165.268321,224.971839 165.355238,224.86451 C165.458617,224.738085 166.102594,224.46153 166.102594,224.117153 C166.102594,224.071719 166.070988,224.013774 166.102594,223.98151 C166.134859,223.949904 166.196755,223.997971 166.238896,223.98151 C170.524837,222.298476 174.799584,220.583837 179.079598,218.885659 C183.763251,217.026815 183.577565,221.875084 187.980053,221.875084 C189.495179,221.875084 193.713297,219.484202 194.774083,218.545891 C197.461273,216.168179 205.258801,219.696228 205.984428,214.469342 C206.124023,213.460576 214.005834,203.087137 215.020527,202.58012" id="Stroke-47"></path>
                    </g>
                </g>
            </g>
        </g>
    </g>
</svg>