<?xml version="1.0" encoding="UTF-8"?>
<svg width="112px" height="17px" viewBox="0 0 112 17" version="1.1" xmlns="http://www.w3.org/2000/svg" xmlns:xlink="http://www.w3.org/1999/xlink">
    <!-- Generator: Sketch 50.2 (55047) - http://www.bohemiancoding.com/sketch -->
    <title>Logo</title>
    <desc>Created with Sketch.</desc>
    <defs></defs>
    <g id="Design" stroke="none" stroke-width="1" fill="none" fill-rule="evenodd">
        <g id="Startpage" transform="translate(-30.000000, -27.000000)">
            <g id="Header">
                <g id="Logo" transform="translate(30.000000, 27.000000)">
                    <path d="M0.216,15.164 L0.216,1.436 C0.216,0.886 0.502,0.6 1.052,0.6 L4.814,0.6 C7.542,0.6 9.588,1.964 9.588,5.176 L9.588,11.424 C9.588,14.636 7.542,16 4.814,16 L1.052,16 C0.502,16 0.216,15.714 0.216,15.164 Z M7.058,5.44 C7.058,3.394 5.98,2.998 4.748,2.998 L2.746,2.998 L2.746,13.602 L4.748,13.602 C5.98,13.602 7.058,13.206 7.058,11.16 L7.058,5.44 Z" id="Combined-Shape" fill="#FFFFFF"></path>
                    <path d="M13.614,1.436 C13.614,0.886 13.9,0.6 14.45,0.6 L15.308,0.6 C15.858,0.6 16.144,0.886 16.144,1.436 L16.144,15.164 C16.144,15.714 15.858,16 15.308,16 L14.45,16 C13.9,16 13.614,15.714 13.614,15.164 L13.614,1.436 Z" id="Path" fill="#FFFFFF"></path>
                    <path d="M28.772,5.748 L27.826,5.748 C27.32,5.748 27.078,5.484 27.078,5 C27.078,3.702 26.286,2.756 24.988,2.756 C23.756,2.756 22.722,3.394 22.722,5.44 L22.722,11.16 C22.722,13.206 23.734,13.844 24.966,13.844 C26.198,13.844 27.21,13.206 27.21,11.16 L27.21,10.478 L26.022,10.478 C25.472,10.478 25.186,10.192 25.186,9.642 L25.186,8.916 C25.186,8.366 25.472,8.08 26.022,8.08 L28.904,8.08 C29.454,8.08 29.74,8.366 29.74,8.916 L29.74,11.424 C29.74,14.636 27.694,16.242 24.966,16.242 C22.238,16.242 20.192,14.636 20.192,11.424 L20.192,5.176 C20.192,1.964 22.238,0.358 24.966,0.358 C27.694,0.358 29.608,2.228 29.608,4.846 L29.608,4.912 C29.608,5.462 29.322,5.748 28.772,5.748 Z" id="Path" fill="#FFFFFF"></path>
                    <path d="M33.568,1.436 C33.568,0.886 33.854,0.6 34.404,0.6 L35.262,0.6 C35.812,0.6 36.098,0.886 36.098,1.436 L36.098,15.164 C36.098,15.714 35.812,16 35.262,16 L34.404,16 C33.854,16 33.568,15.714 33.568,15.164 L33.568,1.436 Z" id="Path" fill="#FFFFFF"></path>
                    <path d="M42.654,15.164 L42.654,2.998 L40.08,2.998 C39.53,2.998 39.244,2.712 39.244,2.162 L39.244,1.436 C39.244,0.886 39.53,0.6 40.08,0.6 L47.758,0.6 C48.308,0.6 48.594,0.886 48.594,1.436 L48.594,2.162 C48.594,2.712 48.308,2.998 47.758,2.998 L45.184,2.998 L45.184,15.164 C45.184,15.714 44.898,16 44.348,16 L43.49,16 C42.94,16 42.654,15.714 42.654,15.164 Z" id="Path" fill="#FFFFFF"></path>
                    <path d="M51.366,15.164 L51.366,5.176 C51.366,1.964 53.412,0.358 56.14,0.358 C58.868,0.358 60.914,1.964 60.914,5.176 L60.914,15.164 C60.914,15.714 60.628,16 60.078,16 L59.22,16 C58.67,16 58.384,15.714 58.384,15.164 L58.384,11.028 L53.896,11.028 L53.896,15.164 C53.896,15.714 53.61,16 53.06,16 L52.202,16 C51.652,16 51.366,15.714 51.366,15.164 Z M53.896,5.44 L53.896,8.63 L58.384,8.63 L58.384,5.44 C58.384,3.394 57.372,2.756 56.14,2.756 C54.908,2.756 53.896,3.394 53.896,5.44 Z" id="Combined-Shape" fill="#FFFFFF"></path>
                    <path d="M65.182,15.164 L65.182,1.436 C65.182,0.886 65.468,0.6 66.018,0.6 L66.876,0.6 C67.426,0.6 67.712,0.886 67.712,1.436 L67.712,13.602 L72.442,13.602 C72.992,13.602 73.278,13.888 73.278,14.438 L73.278,15.164 C73.278,15.714 72.992,16 72.442,16 L66.018,16 C65.468,16 65.182,15.714 65.182,15.164 Z" id="Path" fill="#FFFFFF"></path>
                    <path d="M78.338,11.842 L78.338,11.908 C78.338,13.272 79.284,13.844 80.45,13.844 C81.616,13.844 82.562,13.294 82.562,11.93 L82.562,11.908 C82.562,8.564 75.94,10.236 75.94,4.582 L75.94,4.56 C75.94,1.92 77.788,0.358 80.428,0.358 C83.068,0.358 84.916,1.942 84.916,4.582 L84.916,4.626 C84.916,5.176 84.63,5.462 84.08,5.462 L83.134,5.462 C82.628,5.462 82.386,5.198 82.386,4.714 L82.386,4.648 C82.386,3.416 81.572,2.756 80.428,2.756 C79.284,2.756 78.47,3.416 78.47,4.648 L78.47,4.67 C78.47,8.014 85.092,6.364 85.092,12.018 L85.092,12.04 C85.092,14.724 83.156,16.242 80.384,16.242 C77.744,16.242 75.808,14.658 75.808,12.018 L75.808,11.93 C75.808,11.38 76.094,11.094 76.644,11.094 L77.59,11.094 C78.096,11.094 78.338,11.358 78.338,11.842 Z M88.876,1.436 C88.876,0.886 89.162,0.6 89.712,0.6 L90.57,0.6 C91.12,0.6 91.406,0.886 91.406,1.436 L91.406,7.398 L95.696,1.194 C95.96,0.82 96.224,0.6 96.796,0.6 L98.006,0.6 C98.556,0.6 98.71,1.238 98.424,1.612 L94.288,7.134 L98.512,15.032 C98.732,15.45 98.556,16 97.984,16 L96.884,16 C96.312,16 96.026,15.824 95.784,15.318 L92.704,9.246 L91.406,10.984 L91.406,15.164 C91.406,15.714 91.12,16 90.57,16 L89.712,16 C89.162,16 88.876,15.714 88.876,15.164 L88.876,1.436 Z M104.892,15.164 L104.892,11.248 C102.758,10.808 101.284,9.224 101.284,6.452 L101.284,1.436 C101.284,0.886 101.57,0.6 102.12,0.6 L102.978,0.6 C103.528,0.6 103.814,0.886 103.814,1.436 L103.814,6.188 C103.814,8.322 104.87,8.96 106.146,8.96 C107.422,8.96 108.478,8.322 108.478,6.188 L108.478,1.436 C108.478,0.886 108.764,0.6 109.314,0.6 L110.172,0.6 C110.722,0.6 111.008,0.886 111.008,1.436 L111.008,6.452 C111.008,9.202 109.534,10.786 107.422,11.226 L107.422,15.164 C107.422,15.714 107.136,16 106.586,16 L105.728,16 C105.178,16 104.892,15.714 104.892,15.164 Z" id="DigitalSky" fill="#C6CFFF"></path>
                </g>
            </g>
        </g>
    </g>
</svg>