<?xml version="1.0" encoding="UTF-8"?>
<svg width="40px" height="40px" viewBox="0 0 40 40" version="1.1" xmlns="http://www.w3.org/2000/svg" xmlns:xlink="http://www.w3.org/1999/xlink">
    <!-- Generator: Sketch 50.2 (55047) - http://www.bohemiancoding.com/sketch -->
    <title>Group 4</title>
    <desc>Created with Sketch.</desc>
    <defs></defs>
    <g id="Design" stroke="none" stroke-width="1" fill="none" fill-rule="evenodd">
        <g id="Verifying-Authority" transform="translate(-168.000000, -83.000000)">
            <g id="Group-3" transform="translate(0.000000, 50.000000)">
                <g id="Group-4" transform="translate(168.000000, 33.000000)">
                    <path d="M9,24 L9,28 C9,29.6568542 7.65685425,31 6,31 L6,31 C4.34314575,31 3,32.3431458 3,34 L3,34.9643069" id="Path-3-Copy-2" stroke="#245DFF" stroke-width="2"></path>
                    <path d="M31,24 L31,28 C31,29.6568542 29.6568542,31 28,31 L28,31 C26.3431458,31 25,32.3431458 25,34 L25,34.9643069" id="Path-3-Copy-4" stroke="#245DFF" stroke-width="2"></path>
                    <path d="M15,24 L15,28 C15,29.6568542 13.6568542,31 12,31 L12,31 C10.3431458,31 9,32.3431458 9,34 L9,34.9643069" id="Path-3-Copy-3" stroke="#245DFF" stroke-width="2" transform="translate(12.000000, 29.482153) scale(-1, 1) translate(-12.000000, -29.482153) "></path>
                    <path d="M37,24 L37,28 C37,29.6568542 35.6568542,31 34,31 L34,31 C32.3431458,31 31,32.3431458 31,34 L31,34.9643069" id="Path-3-Copy-5" stroke="#245DFF" stroke-width="2" transform="translate(34.000000, 29.482153) scale(-1, 1) translate(-34.000000, -29.482153) "></path>
                    <circle id="Oval-Copy-6" stroke="#2B2B5B" stroke-width="2" cx="15" cy="37" r="2"></circle>
                    <circle id="Oval-Copy-8" stroke="#2B2B5B" stroke-width="2" cx="37" cy="37" r="2"></circle>
                    <circle id="Oval-Copy-7" stroke="#2B2B5B" stroke-width="2" cx="3" cy="37" r="2"></circle>
                    <circle id="Oval-Copy-9" stroke="#2B2B5B" stroke-width="2" cx="25" cy="37" r="2"></circle>
                    <path d="M20,9 L20,11 C20,13.7614237 17.7614237,16 15,16 L12.9643069,16 C10.7748806,16 9,17.7748806 9,19.9643069" id="Path-3-Copy-2" stroke="#245DFF" stroke-width="2"></path>
                    <path d="M31.517705,9 L31.517705,11 C31.517705,13.7614237 29.2791287,16 26.517705,16 L23.9643069,16 C21.7748806,16 20,17.7748806 20,19.9643069" id="Path-3-Copy-3" stroke="#245DFF" stroke-width="2" transform="translate(25.758852, 14.482153) scale(-1, 1) translate(-25.758852, -14.482153) "></path>
                    <circle id="Oval-Copy-6" stroke="#2B2B5B" stroke-width="2" cx="31" cy="22" r="2"></circle>
                    <circle id="Oval-Copy-7" stroke="#2B2B5B" stroke-width="2" cx="9" cy="22" r="2"></circle>
                    <rect id="Rectangle-4" stroke="#2B2B5B" stroke-width="2" x="16" y="1" width="8" height="8"></rect>
                    <rect id="Rectangle-5" fill="#2B2B5B" x="17" y="2" width="2" height="2"></rect>
                    <rect id="Rectangle-5-Copy" fill="#2B2B5B" x="21" y="2" width="2" height="2"></rect>
                    <rect id="Rectangle-5-Copy-2" fill="#2B2B5B" x="21" y="6" width="2" height="2"></rect>
                    <rect id="Rectangle-5-Copy-3" fill="#2B2B5B" x="17" y="6" width="2" height="2"></rect>
                    <rect id="Rectangle-5-Copy-4" fill="#2B2B5B" x="19" y="4" width="2" height="2"></rect>
                </g>
            </g>
        </g>
    </g>
</svg>