<?xml version="1.0" encoding="UTF-8"?>
<svg width="19px" height="17px" viewBox="0 0 19 17" version="1.1" xmlns="http://www.w3.org/2000/svg" xmlns:xlink="http://www.w3.org/1999/xlink">
    <!-- Generator: Sketch 50.2 (55047) - http://www.bohemiancoding.com/sketch -->
    <title>Group 9</title>
    <desc>Created with Sketch.</desc>
    <defs></defs>
    <g id="Design" stroke="none" stroke-width="1" fill="none" fill-rule="evenodd">
        <g id="Verifying-Authority" transform="translate(-17.000000, -1317.000000)" fill="#245DFF">
            <g id="CTA" transform="translate(0.000000, 1299.000000)">
                <g id="Group-7">
                    <g id="Group-9" transform="translate(17.000000, 18.000000)">
                        <path d="M6.94219624,2.38994863 L18.5880743,2.38994863 C19.6926438,2.38994863 20.5880743,3.28537913 20.5880743,4.38994863 C20.5880743,4.79453574 20.4653684,5.18960953 20.2361581,5.52300628 L14.4132191,13.9927358 C13.7874486,14.9029473 12.5422892,15.1335324 11.6320776,14.507762 C11.4303256,14.3690574 11.2557559,14.1944878 11.1170514,13.9927358 L5.29411239,5.52300628 C4.66834193,4.6127947 4.89892702,3.36763524 5.80913859,2.74186478 C6.14253533,2.51265452 6.53760913,2.38994863 6.94219624,2.38994863 Z" id="Rectangle-8-Copy" transform="translate(12.765042, 8.624907) rotate(-270.000000) translate(-12.765042, -8.624907) "></path>
                        <rect id="Rectangle-7" x="0" y="0" width="3" height="17" rx="1.5"></rect>
                    </g>
                </g>
            </g>
        </g>
    </g>
</svg>