<?xml version="1.0" encoding="UTF-8"?>
<svg width="19px" height="17px" viewBox="0 0 19 17" version="1.1" xmlns="http://www.w3.org/2000/svg" xmlns:xlink="http://www.w3.org/1999/xlink">
    <!-- Generator: Sketch 50.2 (55047) - http://www.bohemiancoding.com/sketch -->
    <title>Group 10</title>
    <desc>Created with Sketch.</desc>
    <defs></defs>
    <g id="Design" stroke="none" stroke-width="1" fill="none" fill-rule="evenodd">
        <g id="Verifying-Authority" transform="translate(-341.000000, -1317.000000)" fill="#245DFF">
            <g id="CTA-Copy-4" transform="translate(350.500000, 1325.000000) scale(-1, 1) translate(-350.500000, -1325.000000) translate(324.000000, 1299.000000)">
                <g id="Group-7">
                    <g id="Group-10" transform="translate(17.000000, 17.000000)">
                        <path d="M6.17706098,2.625 L17.822939,2.625 C18.9275085,2.625 19.822939,3.5204305 19.822939,4.625 C19.822939,5.02958711 19.7002331,5.4246609 19.4710229,5.75805765 L13.6480838,14.2277871 C13.0223134,15.1379987 11.7771539,15.3685838 10.8669424,14.7428133 C10.6651903,14.6041088 10.4906207,14.4295392 10.3519162,14.2277871 L4.52897713,5.75805765 C3.90320667,4.84784607 4.13379176,3.60268661 5.04400333,2.97691615 C5.37740008,2.74770589 5.77247387,2.625 6.17706098,2.625 Z" id="Rectangle-8-Copy" transform="translate(12.000000, 9.625000) rotate(-270.000000) translate(-12.000000, -9.625000) "></path>
                        <rect id="Rectangle-7" x="0" y="1" width="3" height="17" rx="1.5"></rect>
                    </g>
                </g>
            </g>
        </g>
    </g>
</svg>