<?xml version="1.0" encoding="UTF-8"?>
<svg width="13px" height="17px" viewBox="0 0 13 17" version="1.1" xmlns="http://www.w3.org/2000/svg" xmlns:xlink="http://www.w3.org/1999/xlink">
    <!-- Generator: Sketch 50.2 (55047) - http://www.bohemiancoding.com/sketch -->
    <title>Rectangle 8</title>
    <desc>Created with Sketch.</desc>
    <defs></defs>
    <g id="Design" stroke="none" stroke-width="1" fill="none" fill-rule="evenodd">
        <g id="Verifying-Authority" transform="translate(-291.000000, -1317.000000)" fill="#245DFF">
            <g id="CTA-Copy-6" transform="translate(315.000000, 1325.000000) scale(-1, 1) translate(-315.000000, -1325.000000) translate(270.000000, 1299.000000)">
                <g id="Group-6" transform="translate(37.000000, 0.000000)">
                    <path d="M19.177061,19.625 L30.822939,19.625 C31.9275085,19.625 32.822939,20.5204305 32.822939,21.625 C32.822939,22.0295871 32.7002331,22.4246609 32.4710229,22.7580576 L26.6480838,31.2277871 C26.0223134,32.1379987 24.7771539,32.3685838 23.8669424,31.7428133 C23.6651903,31.6041088 23.4906207,31.4295392 23.3519162,31.2277871 L17.5289771,22.7580576 C16.9032067,21.8478461 17.1337918,20.6026866 18.0440033,19.9769162 C18.3774001,19.7477059 18.7724739,19.625 19.177061,19.625 Z" id="Rectangle-8" transform="translate(25.000000, 26.625000) rotate(-270.000000) translate(-25.000000, -26.625000) "></path>
                </g>
            </g>
        </g>
    </g>
</svg>