<?xml version="1.0" encoding="UTF-8"?>
<svg width="22px" height="23px" viewBox="0 0 22 23" version="1.1" xmlns="http://www.w3.org/2000/svg" xmlns:xlink="http://www.w3.org/1999/xlink">
    <!-- Generator: Sketch 50.2 (55047) - http://www.bohemiancoding.com/sketch -->
    <title>Key</title>
    <desc>Created with Sketch.</desc>
    <defs></defs>
    <g id="Design" stroke="none" stroke-width="1" fill="none" fill-rule="evenodd">
        <g id="Sign-in" transform="translate(-56.000000, -520.000000)">
            <g id="Field-Copy-8" transform="translate(40.000000, 455.000000)">
                <g id="Key" transform="translate(16.000000, 65.000000)">
                    <circle id="Oval" fill="#2B2B5B" cx="15.5" cy="6.5" r="6.5"></circle>
                    <path d="M0,21.4684701 L-2.44249065e-15,18.8826836 C-2.94608943e-15,18.6174672 0.10535684,18.3631132 0.292893219,18.1755769 L12.4684701,6 L16,10.4684701 L12.2928932,14.1755769 C12.1053568,14.3631132 11.8510029,14.4684701 11.5857864,14.4684701 L10,14.4684701 L10,16.0542565 C10,16.319473 9.89464316,16.5738269 9.70710678,16.7613633 L8.29289322,18.1755769 C8.10535684,18.3631132 7.85100293,18.4684701 7.58578644,18.4684701 L6,18.4684701 L6,20.0543996 C6,20.3195314 5.89471019,20.5738113 5.70727944,20.7613336 L4.29389938,22.1754042 C4.10634898,22.3630462 3.85192106,22.4684701 3.58661994,22.4684701 L1,22.4684701 C0.44771525,22.4684701 6.76353751e-17,22.0207548 0,21.4684701 Z" id="Path-2" fill="#2B2B5B"></path>
                    <circle id="Path" fill="#F5F7FD" cx="15.5" cy="6.5" r="2.5"></circle>
                </g>
            </g>
        </g>
    </g>
</svg>