<?xml version="1.0" encoding="UTF-8"?>
<svg width="29px" height="29px" viewBox="0 0 29 29" version="1.1" xmlns="http://www.w3.org/2000/svg" xmlns:xlink="http://www.w3.org/1999/xlink">
    <!-- Generator: Sketch 50.2 (55047) - http://www.bohemiancoding.com/sketch -->
    <title>Fill 1</title>
    <desc>Created with Sketch.</desc>
    <defs></defs>
    <g id="Design" stroke="none" stroke-width="1" fill="none" fill-rule="evenodd">
        <g id="Dashboard" transform="translate(-285.000000, -999.000000)" fill="#C64500">
            <g id="Application-Status" transform="translate(40.000000, 801.000000)">
                <g id="In-Process" transform="translate(0.000000, 165.000000)">
                    <path d="M259.417,53.1591329 C256.245045,53.1591329 253.674867,50.5881275 253.674867,47.417 C253.674867,44.2450448 256.245045,41.6740393 259.417,41.6740393 C262.588955,41.6740393 265.159133,44.2450448 265.159133,47.417 C265.159133,50.5881275 262.588955,53.1591329 259.417,53.1591329 M273.056739,45.9262142 L270.236579,44.7176926 C270.230785,44.7152093 270.224163,44.7143816 270.218368,44.7118983 C269.949348,43.634162 269.52471,42.6201627 268.966804,41.6914222 C268.970115,41.6856279 268.973426,41.6798336 268.975909,41.6740393 L270.115727,38.8265639 C270.310249,38.340672 270.248995,37.8605744 269.956798,37.568377 L269.264795,36.877202 C268.972598,36.584177 268.4925,36.5237509 268.007436,36.7182732 L265.159133,37.8580911 C265.153339,37.8605744 265.147544,37.8638854 265.14175,37.8663687 C264.213837,37.3092899 263.199838,36.8846518 262.122102,36.6148039 C262.119618,36.6090096 262.117963,36.6032153 262.11548,36.5965933 L260.907786,33.7772615 C260.701675,33.2963361 260.319252,33 259.905375,33 L258.927797,33 C258.51392,33 258.132325,33.2963361 257.926214,33.7772615 L256.71852,36.5965933 C256.716037,36.6032153 256.714382,36.6090096 256.711898,36.6148039 C255.634162,36.8846518 254.620163,37.3092899 253.691422,37.8663687 C253.685628,37.8638854 253.680661,37.8605744 253.674867,37.8580911 L250.826564,36.7182732 C250.340672,36.5237509 249.861402,36.584177 249.568377,36.877202 L248.877202,37.568377 C248.584177,37.8605744 248.523751,38.340672 248.718273,38.8265639 L249.858091,41.6740393 C249.860574,41.6798336 249.863885,41.6856279 249.866369,41.6914222 C249.30929,42.6201627 248.884652,43.634162 248.615632,44.7118983 C248.60901,44.7143816 248.603215,44.7152093 248.597421,44.7176926 L245.777261,45.9262142 C245.296336,46.1314973 245,46.5139198 245,46.9277971 L245,47.9053752 C245,48.3192524 245.296336,48.701675 245.777261,48.9077858 L248.597421,50.1154796 C248.603215,50.1179629 248.60901,50.1187907 248.615632,50.1212739 C248.884652,51.199838 249.30929,52.2138373 249.866369,53.1417501 C249.863885,53.1475444 249.860574,53.1533386 249.858091,53.1591329 L248.718273,56.0074361 C248.523751,56.4925003 248.584177,56.9725979 248.877202,57.2647952 L249.568377,57.956798 C249.861402,58.2489953 250.340672,58.3094214 250.826564,58.1157268 L253.674867,56.9759089 C253.680661,56.9734256 253.685628,56.9692868 253.691422,56.9668036 C254.620163,57.5247101 255.634162,57.9493482 256.711898,58.2183684 C256.714382,58.2241627 256.716037,58.2307847 256.71852,58.236579 L257.926214,61.0567385 C258.132325,61.5368361 258.51392,61.8331722 258.927797,61.8331722 L259.905375,61.8331722 C260.319252,61.8331722 260.701675,61.5368361 260.907786,61.0567385 L262.11548,58.236579 C262.117963,58.2307847 262.118791,58.2241627 262.121274,58.2183684 C263.199838,57.9493482 264.213837,57.5247101 265.14175,56.9668036 C265.147544,56.9692868 265.153339,56.9734256 265.159133,56.9759089 L268.007436,58.1157268 C268.4925,58.3094214 268.972598,58.2489953 269.264795,57.956798 L269.956798,57.2647952 C270.248995,56.9725979 270.310249,56.4925003 270.115727,56.0074361 L268.975909,53.1591329 C268.973426,53.1533386 268.970115,53.1475444 268.966804,53.1417501 C269.52471,52.2130095 269.949348,51.199838 270.218368,50.1212739 C270.224163,50.1187907 270.230785,50.1179629 270.236579,50.1154796 L273.056739,48.9077858 C273.536836,48.701675 273.834,48.3192524 273.834,47.9053752 L273.834,46.9277971 C273.834,46.5139198 273.536836,46.1314973 273.056739,45.9262142" id="Fill-1"></path>
                </g>
            </g>
        </g>
    </g>
</svg>