<?xml version="1.0" encoding="UTF-8"?>
<svg width="24px" height="19px" viewBox="0 0 24 19" version="1.1" xmlns="http://www.w3.org/2000/svg" xmlns:xlink="http://www.w3.org/1999/xlink">
    <!-- Generator: Sketch 51.1 (57501) - http://www.bohemiancoding.com/sketch -->
    <title>Fill 4</title>
    <desc>Created with Sketch.</desc>
    <defs></defs>
    <g id="Design" stroke="none" stroke-width="1" fill="none" fill-rule="evenodd">
        <g id="Press-Release" transform="translate(-44.000000, -336.000000)" fill="#245DFF">
            <path d="M68,338.249982 C67.1181546,338.631381 66.167283,338.889306 65.1727417,339.005921 C66.1898222,338.411871 66.9702412,337.472092 67.3365029,336.352589 C66.3856313,336.902737 65.3319246,337.300599 64.2091918,337.514622 C63.3132594,336.583075 62.0327522,336 60.6156013,336 C57.8982215,336 55.693608,338.14983 55.693608,340.796303 C55.693608,341.173587 55.7344603,341.537151 55.8203909,341.888367 C51.7281211,341.688064 48.100722,339.781067 45.6707167,336.87667 C45.2466984,337.588707 45.0044022,338.411871 45.0044022,339.291285 C45.0044022,340.952704 45.8735693,342.422052 47.1949287,343.282259 C46.3877443,343.257564 45.6284557,343.040797 44.9635499,342.682721 L44.9635499,342.741714 C44.9635499,345.067153 46.6610319,347.005704 48.9149498,347.444725 C48.5007924,347.557224 48.0669132,347.613474 47.6161296,347.613474 C47.2991724,347.613474 46.9892587,347.586035 46.6906145,347.529786 C47.3160768,349.432667 49.1347068,350.82107 51.2900158,350.858112 C49.6038035,352.144992 47.4808945,352.911907 45.1748547,352.911907 C44.7776017,352.911907 44.3845747,352.889956 44,352.846054 C46.1792569,354.205647 48.7670365,355 51.5478077,355 C60.6057404,355 65.5573164,347.693046 65.5573164,341.353311 C65.5573164,341.144776 65.5530903,340.937613 65.5432294,340.733194 C66.5053707,340.055455 67.3421377,339.211712 68,338.249982" id="Fill-4"></path>
        </g>
    </g>
</svg>